<svg width="752" height="755" viewBox="0 0 752 755" fill="none" xmlns="http://www.w3.org/2000/svg">
<path opacity="0.6" d="M606.178 507.847C570.904 446.75 492.781 425.815 431.687 461.088C370.592 496.361 349.66 574.485 384.935 635.582L388.105 641.073C423.379 702.17 501.502 723.104 562.597 687.831C623.691 652.558 644.623 574.435 609.348 513.338L606.178 507.847Z" fill="#63C6FA"/>
<path d="M447.656 97.6261C412.382 36.529 334.259 15.5945 273.164 50.8675C212.069 86.1405 191.138 164.264 226.412 225.361L229.582 230.852C264.857 291.949 342.979 312.883 404.074 277.61C465.169 242.337 486.1 164.214 450.826 103.117L447.656 97.6261Z" fill="#2873C9"/>
<path opacity="0.7" d="M320.361 554.515L314.351 557.985C265.335 586.284 248.542 648.96 276.841 697.975L280.956 705.103C309.255 754.118 371.93 770.912 420.946 742.613L426.956 739.143C475.972 710.844 492.765 648.168 464.466 599.153L460.351 592.025C432.052 543.01 369.377 526.216 320.361 554.515Z" fill="#007DD4"/>
<path d="M700.5 391.661C700.5 203.194 547.717 50.4114 359.25 50.4114C170.783 50.4114 18 203.194 18 391.661V392.161C18 580.629 170.783 733.411 359.25 733.411C547.717 733.411 700.5 580.629 700.5 392.161V391.661Z" stroke="#63C6FA" stroke-width="36" stroke-miterlimit="10"/>
<path d="M733.71 398.161C733.71 209.694 580.927 56.9114 392.46 56.9114C203.993 56.9114 51.21 209.694 51.21 398.161V398.661C51.21 587.129 203.993 739.911 392.46 739.911C580.927 739.911 733.71 587.129 733.71 398.661V398.161Z" stroke="#2873C9" stroke-width="36" stroke-miterlimit="10"/>
<path d="M389.63 69.4114C390.11 69.4114 390.11 68.6614 389.63 68.6614C389.15 68.6614 389.15 69.4114 389.63 69.4114Z" fill="black"/>
<g opacity="0.4">
<path d="M476.06 235.901C476.17 237.751 468.99 240.291 468.99 246.151L467.81 244.691C464.36 239.261 450.06 217.831 438.28 210.511L452.14 206.361C461.38 212.321 469.17 234.041 476.06 235.901Z" fill="black"/>
<path d="M475.19 235.661C474.81 237.541 471.25 239.301 470.11 240.811C468.84 242.481 468.27 244.081 468.09 246.141L469.63 245.501C459.73 233.201 452.41 218.571 438.74 209.721L438.53 211.361L449.07 208.211C449.63 208.041 450.58 207.601 451.18 207.581C452.89 207.511 451.25 206.991 453.04 208.121C455.32 209.571 457.25 212.551 458.75 214.651C462.1 219.341 464.84 224.421 468.08 229.181C470.06 232.091 472.34 235.551 475.83 236.761C476.93 237.141 477.4 235.401 476.31 235.021C471.42 233.321 468.34 226.331 465.77 222.201C462.79 217.391 459.85 212.271 455.81 208.231C452.83 205.251 452.31 205.361 448.59 206.471L438.05 209.621C437.29 209.851 437.19 210.841 437.84 211.261C451.34 220.001 458.59 234.621 468.37 246.761C468.91 247.431 469.85 246.811 469.91 246.121C470.23 242.401 472.58 240.841 475.03 238.601C475.85 237.851 476.71 237.251 476.94 236.111C477.17 234.971 475.43 234.501 475.2 235.631L475.19 235.661Z" fill="black"/>
</g>
<g opacity="0.4">
<path d="M493.74 237.361C500.63 235.501 510.51 219.891 524.65 212.571L532.11 219.831C514.65 231.881 518.25 232.271 501.98 246.141L500.8 247.601C500.8 241.741 493.95 239.871 494.06 238.021L493.73 237.351L493.74 237.361Z" fill="black"/>
<path d="M493.98 238.231C501.65 235.721 507.43 227.001 513.24 221.831C515.76 219.581 518.4 217.451 521.24 215.611C521.73 215.291 524.26 213.301 524.1 213.291C524.38 213.291 524.97 214.221 525.18 214.341C527.47 215.701 529.55 218.591 531.48 220.461L531.66 219.051C525.88 223.071 520.33 227.241 515.38 232.251C510.43 237.261 504.48 241.621 500.17 246.961L501.71 247.601C501.26 242.211 496.6 241.151 494.52 236.901C494.01 235.861 492.46 236.771 492.97 237.811C494.84 241.641 499.51 242.741 499.92 247.601C499.98 248.291 500.92 248.901 501.46 248.241C505.61 243.091 511.41 238.891 516.08 234.131C521.11 229.001 526.68 224.711 532.58 220.611C533.04 220.291 533.2 219.631 532.76 219.201C530.27 216.781 527.78 214.361 525.3 211.941C525.01 211.651 524.57 211.611 524.21 211.801C517.86 215.231 512.46 219.921 507.32 224.941C503.34 228.831 498.99 234.701 493.52 236.491C492.42 236.851 492.89 238.591 494 238.231H493.98Z" fill="black"/>
</g>
<g opacity="0.4">
<path d="M506.33 260.781C509.63 264.241 507.43 273.471 501.92 267.701L506.33 260.781Z" fill="black"/>
<path d="M506.33 260.781C509.63 264.241 507.43 273.471 501.92 267.701" stroke="black" stroke-width="2" stroke-linecap="round" stroke-linejoin="round"/>
</g>
<g opacity="0.4">
<path d="M500.93 94.0314C502.38 94.0314 502.38 91.7814 500.93 91.7814C499.48 91.7814 499.48 94.0314 500.93 94.0314Z" fill="black"/>
</g>
<g opacity="0.4">
<path d="M452.84 88.3114C453.35 87.4614 454.54 87.5214 455.49 87.3114C458.91 86.5614 459.66 81.9814 459.67 78.3914C462.9 80.2714 466.98 79.7914 470.47 78.4714C473.96 77.1514 477.13 75.0614 480.62 73.7414C483.96 72.4814 487.52 71.9414 491.07 71.7114" fill="black"/>
</g>
<path opacity="0.4" d="M518.91 122.631C512.67 122.061 506.98 121.851 503.97 119.181C503.41 118.691 502.19 117.611 502.47 116.471C502.7 115.511 503.88 115.021 504.29 114.861C507.46 114.181 514.21 113.251 522.2 115.441" fill="black"/>
<g opacity="0.4">
<path d="M469.14 137.741C474.93 137.741 474.94 128.741 469.14 128.741C463.34 128.741 463.34 137.741 469.14 137.741Z" fill="black"/>
</g>
<path opacity="0.4" d="M468.79 121.881C473.82 121.781 481.33 121.711 483.99 119.491C484.36 119.181 485.23 118.461 485.26 117.411C485.3 116.281 484.37 115.431 484.05 115.171C480.94 114.271 474.28 112.861 466.15 114.481C459.82 115.741 455.91 117.891 453.05 120.141C453 120.271 452.62 121.291 453.22 122.221C453.84 123.191 464.66 121.971 468.78 121.881H468.79Z" fill="black"/>
<g opacity="0.4">
<path d="M480.46 161.831C486.21 166.771 493.55 166.991 499.42 162.401L480.46 161.831Z" fill="black"/>
<path d="M479.93 162.361C482.71 164.711 486.08 166.291 489.76 166.431C493.44 166.571 496.93 165.251 499.8 163.051C500.56 162.471 499.8 161.171 499.04 161.751C496.44 163.751 493.35 165.001 490.03 164.941C486.71 164.881 483.53 163.441 480.99 161.301C480.26 160.681 479.19 161.741 479.93 162.361Z" fill="black"/>
</g>
<g opacity="0.4">
<path d="M457.79 190.151C465.23 199.991 477.96 205.901 490.63 205.391L457.79 190.151Z" fill="black"/>
<path d="M457.15 190.531C464.98 200.771 477.79 206.591 490.64 206.141C491.6 206.111 491.61 204.611 490.64 204.641C478.36 205.071 465.95 199.591 458.45 189.771C457.87 189.011 456.57 189.761 457.15 190.531Z" fill="black"/>
</g>
<g opacity="0.4">
<path d="M451.86 167.761C452.87 160.511 453.88 154.291 454.89 147.031L451.86 167.761Z" fill="black"/>
<path d="M452.58 167.961C453.55 161.041 454.65 154.151 455.61 147.231C455.74 146.291 454.3 145.881 454.16 146.831C453.19 153.751 452.09 160.641 451.13 167.561C451 168.501 452.44 168.911 452.58 167.961Z" fill="black"/>
</g>
<g opacity="0.4">
<path d="M460.42 112.521C465.07 105.311 473.28 100.651 481.72 100.421L460.42 112.521Z" fill="black"/>
<path d="M461.39 113.091C465.85 106.271 473.55 101.821 481.72 101.551C483.16 101.501 483.17 99.2514 481.72 99.3014C472.74 99.6014 464.36 104.461 459.45 111.961C458.65 113.181 460.6 114.301 461.39 113.101V113.091Z" fill="black"/>
</g>
<g opacity="0.4">
<path d="M453.52 89.5914C455.33 92.4014 455.38 96.0614 454.61 99.3314C453.85 102.601 452.35 105.641 451.24 108.801C449.82 112.811 449.01 117.051 448.84 121.311" fill="black"/>
<path d="M452.55 90.1614C455.42 94.8514 453.32 100.441 451.47 105.091C449.38 110.351 447.98 115.641 447.72 121.321C447.65 122.771 449.9 122.761 449.97 121.321C450.11 118.261 450.56 115.231 451.35 112.271C452.14 109.311 453.26 106.731 454.31 103.991C456.13 99.2214 457.33 93.6714 454.49 89.0314C453.74 87.8014 451.79 88.9314 452.55 90.1714V90.1614Z" fill="black"/>
</g>
<g opacity="0.4">
<path d="M450.37 129.491C450.86 133.241 452.3 136.861 454.51 139.891C455.95 134.631 457.38 129.361 458.82 124.101" fill="black"/>
<path d="M449.29 129.791C449.81 133.631 451.28 137.311 453.54 140.461C454.08 141.211 455.32 141.191 455.6 140.191C457.04 134.931 458.47 129.661 459.91 124.401C460.29 123.001 458.12 122.401 457.74 123.801C456.3 129.061 454.87 134.331 453.43 139.591L455.49 139.321C453.32 136.311 451.97 132.861 451.47 129.191C451.39 128.581 450.62 128.261 450.09 128.401C449.44 128.571 449.22 129.181 449.3 129.781L449.29 129.791Z" fill="black"/>
</g>
<g opacity="0.4">
<path d="M491.01 71.8114C487.46 72.0414 483.9 72.5714 480.56 73.8414C477.07 75.1614 473.9 77.2414 470.41 78.5714C466.92 79.8914 462.84 80.3714 459.61 78.4914C459.61 82.0714 458.85 86.6614 455.43 87.4114C454.48 87.6214 453.29 87.5514 452.78 88.4114" fill="black"/>
<path d="M491.01 70.6914C488.29 70.8814 485.56 71.2114 482.92 71.9114C480.28 72.6114 477.77 73.7814 475.32 75.0314C470.79 77.3414 465.18 80.2614 460.18 77.5214C459.43 77.1114 458.49 77.6214 458.49 78.4914C458.47 80.6214 458.34 83.0914 457.12 84.9114C455.8 86.8814 453.23 86.0014 451.82 87.8314C450.94 88.9814 452.89 90.1014 453.76 88.9714C454.11 88.5214 455.23 88.6114 455.74 88.4914C456.25 88.3714 456.75 88.1714 457.2 87.9114C458.13 87.3614 458.86 86.4914 459.36 85.5514C460.49 83.4114 460.73 80.8814 460.74 78.5014L459.05 79.4714C463.91 82.1414 469.4 80.4714 474.05 78.1914C476.66 76.9214 479.19 75.4614 481.96 74.5514C484.89 73.5914 487.94 73.1614 491.01 72.9514C492.45 72.8514 492.46 70.6014 491.01 70.7014V70.6914Z" fill="black"/>
</g>
<g opacity="0.4">
<path d="M491.64 147.491C492.03 145.061 492.42 142.641 492.82 140.211L491.64 147.491Z" fill="black"/>
<path d="M493.09 147.891C493.48 145.461 493.87 143.041 494.27 140.611C494.58 138.721 491.69 137.911 491.38 139.811C490.99 142.241 490.6 144.661 490.2 147.091C489.89 148.981 492.78 149.791 493.09 147.891Z" fill="black"/>
</g>
<g opacity="0.4">
<path d="M464.16 127.881C468.43 126.841 471.21 126.961 475.36 129.431L464.16 127.881Z" fill="black"/>
<path d="M464.36 128.611C466.11 128.191 467.92 127.881 469.73 128.091C471.54 128.301 473.36 129.131 474.98 130.091C475.81 130.581 476.57 129.291 475.74 128.791C473.92 127.721 471.99 126.871 469.89 126.601C467.9 126.351 465.9 126.691 463.97 127.161C463.03 127.391 463.43 128.831 464.37 128.611H464.36Z" fill="black"/>
</g>
<path opacity="0.4" d="M483.06 205.321C490.98 206.371 493.72 205.321 503.45 203.631C502.04 206.341 498.89 211.651 493.33 215.511C487.81 219.341 482.71 219.811 480.21 219.831C478.48 219.691 474.68 219.051 471.08 215.511C464.79 209.331 464.36 199.471 464.31 198.001" fill="black"/>
<g opacity="0.4">
<path d="M458.94 207.601C460.96 205.531 463.17 201.451 462.9 198.151L458.94 207.601Z" fill="black"/>
<path d="M459.58 208.241C462.07 205.571 463.97 201.871 463.8 198.151C463.75 197.001 461.95 196.991 462 198.151C462.14 201.401 460.48 204.631 458.31 206.961C457.52 207.811 458.79 209.081 459.58 208.231V208.241Z" fill="black"/>
</g>
<g opacity="0.4">
<path d="M520.42 215.511C522.35 215.511 522.35 212.511 520.42 212.511C518.49 212.511 518.49 215.511 520.42 215.511Z" fill="black"/>
</g>
<path d="M478.89 12.8615H470.07C407.01 12.8615 355.89 63.9816 355.89 127.041V129.061C355.89 192.121 407.01 243.241 470.07 243.241H478.89C541.95 243.241 593.07 192.121 593.07 129.061V127.041C593.07 63.9816 541.95 12.8615 478.89 12.8615Z" fill="#2873C9" stroke="black" stroke-width="2" stroke-miterlimit="10"/>
<path d="M439.83 178.341C440.11 181.701 430.87 195.371 428.85 197.481C433.4 212.401 446.48 223.231 461.9 224.881C478.27 226.631 494.2 217.741 501.35 202.751C499.48 199.531 497.54 195.411 495.77 190.531C493.97 185.601 492.59 180.541 492.65 177.561L492.81 175.191C478.79 188.431 455.83 188.791 440.97 176.721L439.83 178.341Z" fill="#FFE4B4"/>
<path d="M395.91 271.041C420.89 275.341 445.95 278.831 470.94 283.011C499.06 287.721 531.66 293.611 559.83 301.191C562.58 301.931 565.21 299.691 564.91 296.861L562.54 273.911C562.54 273.811 562.52 273.721 562.5 273.621C558.08 248.841 558.52 238.911 548.53 225.771C538.81 212.971 516.47 206.121 503.74 196.101C502.15 194.851 499.9 194.961 498.44 196.351L490.98 203.471C488.23 207.111 481.34 207.131 477.16 207.311C475.4 207.381 473.89 208.571 473.42 210.271C472.6 213.241 471.05 218.071 469.07 220.711C465.01 226.121 456 223.171 454.31 220.811C453.37 219.501 452.39 211.151 450.07 208.711C444.4 202.741 435.32 199.351 431.67 189.861C431.17 188.571 430.1 187.591 428.75 187.291C427.96 187.111 427.13 187.181 426.37 187.481C407.69 194.821 392.06 201.081 380.53 208.771C372.2 214.321 360.42 237.251 351.59 256.281C350.51 258.611 351.84 261.331 354.33 261.921C366.91 264.911 384.99 269.051 395.91 271.051V271.041Z" fill="#0071BC"/>
<path d="M428.66 186.061C413.68 192.061 397.61 197.531 383.67 205.711C366.86 215.581 361.26 236.281 352.9 252.731C352.48 253.551 353.72 254.281 354.14 253.461C362.66 236.681 368.28 215.961 385.66 206.231C399.28 198.601 414.57 193.241 429.04 187.451C429.89 187.111 429.52 185.721 428.66 186.061Z" fill="black"/>
<path d="M500.03 194.731C514.28 206.721 534.18 211.161 546.75 225.281C558.6 238.591 558.65 257.261 561.83 273.891C562 274.801 563.39 274.411 563.22 273.511C560.15 257.431 560.01 239.571 549.4 226.211C537.01 210.611 515.92 206.221 501.05 193.711C500.35 193.121 499.32 194.131 500.03 194.731Z" fill="black"/>
<path d="M467.18 252.401C470 252.181 471.09 257.061 467.29 257.331" stroke="black" stroke-width="2" stroke-linecap="round" stroke-linejoin="round"/>
<path d="M477.64 74.4315C479.09 74.4315 479.09 72.1815 477.64 72.1815C476.19 72.1815 476.19 74.4315 477.64 74.4315Z" fill="black"/>
<path d="M429.55 68.7114C430.06 67.8614 431.25 67.9214 432.2 67.7114C435.62 66.9614 436.37 62.3814 436.38 58.7914C439.61 60.6714 443.69 60.1914 447.18 58.8714C450.67 57.5514 453.84 55.4614 457.33 54.1414C460.67 52.8814 464.23 52.3414 467.78 52.1114C485.37 50.9714 503.31 57.4314 516.32 69.6014C519.56 72.6314 522.58 76.1214 523.93 80.3914C524.37 81.1614 525.04 82.5514 525.18 84.4014C525.26 85.4914 525.14 86.4214 525 87.1014C525.02 88.1414 525.24 89.6414 525 91.3914C524.04 98.4314 524.46 105.831 522.11 112.521C513.05 138.281 513.05 124.811 512.03 119.631L512.25 99.1314C511.94 93.3614 511.04 86.7014 506.24 83.6714C503.31 81.8114 499.58 81.8514 496.2 82.5414C492.82 83.2314 489.56 84.5314 486.15 85.0214C479.87 85.9314 473.53 84.0714 467.63 81.7014L458.49 80.7114C450.05 80.9314 441.85 85.6014 437.19 92.8114L435.59 104.401C434.15 109.661 432.72 114.931 431.28 120.191C429.07 117.161 427.63 113.541 427.14 109.791C426.64 109.451 425.61 108.641 425.03 107.211C423.92 104.471 425.44 101.901 425.61 101.611C425.85 96.0314 427.03 91.8814 428.01 89.1014C429.13 85.9414 430.62 82.9014 431.38 79.6314C431.88 77.4914 431.98 74.2614 430.29 69.8914" fill="#FFEB94"/>
<path d="M430.42 123.201C429.41 129.791 428.31 134.291 427.86 138.721C427.04 142.621 426.15 149.691 428.56 157.971C430.18 163.561 432.76 167.811 434.81 170.621C436.84 173.271 441.4 178.431 449.27 182.061C454.97 184.691 461.32 186.031 467.65 185.781C480.32 185.271 490.04 180.541 496.66 170.191C498.29 168.211 499.89 166.021 501.39 163.611C509.26 151.041 510.94 138.351 511.04 129.611C511.53 127.521 511.97 125.271 512.35 122.881C512.7 120.621 512.97 118.361 513.16 116.081L512.5 97.0814C512.19 91.8314 511.29 85.7914 506.49 83.0314C503.56 81.3414 499.83 81.3714 496.45 82.0014C493.07 82.6314 489.81 83.8114 486.4 84.2514C480.12 85.0714 473.78 83.3814 467.88 81.2414C466.63 81.0514 465.33 80.8814 463.97 80.7314C462.14 80.5414 460.39 80.4114 458.74 80.3314C456.37 80.4114 451.7 80.8514 446.67 83.4514C442.98 85.3514 439.77 88.0514 437.44 91.3314C436.52 95.6314 435.59 99.9514 434.64 104.281C433.25 110.621 431.85 116.921 430.42 123.181V123.201Z" fill="#FFE4B4"/>
<path d="M494.25 119.251C500.04 119.251 500.05 110.251 494.25 110.251C488.45 110.251 488.45 119.251 494.25 119.251Z" fill="black"/>
<path d="M495.62 103.021C489.38 102.451 483.69 102.241 480.68 99.5715C480.12 99.0815 478.9 98.0015 479.18 96.8615C479.41 95.9015 480.59 95.4115 481 95.2515C484.17 94.5715 490.92 93.6415 498.91 95.8315C505.11 97.5315 508.81 99.9515 511.46 102.401C511.5 102.531 511.78 103.581 511.11 104.461C510.41 105.381 499.73 103.401 495.63 103.021H495.62Z" fill="black"/>
<path d="M446.85 118.131C452.64 118.131 452.65 109.131 446.85 109.131C441.05 109.131 441.05 118.131 446.85 118.131Z" fill="black"/>
<path d="M445.5 102.281C450.53 102.181 458.04 102.111 460.7 99.8915C461.07 99.5815 461.94 98.8614 461.97 97.8114C462.01 96.6814 461.08 95.8315 460.76 95.5715C457.65 94.6715 450.99 93.2614 442.86 94.8814C436.53 96.1414 432.62 98.2915 429.76 100.541C429.71 100.671 429.33 101.691 429.93 102.621C430.55 103.591 441.37 102.371 445.49 102.281H445.5Z" fill="black"/>
<path d="M458.27 142.841C460.72 145.241 463.88 146.801 467.34 146.871C470.8 146.941 474.03 145.511 476.66 143.331C477.4 142.711 476.34 141.661 475.6 142.271C473.28 144.201 470.39 145.431 467.34 145.371C464.29 145.311 461.49 143.901 459.33 141.781C458.64 141.101 457.58 142.161 458.27 142.841Z" fill="black"/>
<path d="M433.86 170.931C445.72 186.441 468.8 191.271 485.81 181.511C490.31 178.921 494.16 175.361 497.41 171.341C498.01 170.601 496.96 169.531 496.35 170.281C490.85 177.101 483.71 182.121 475.1 184.061C465.78 186.161 455.9 184.941 447.45 180.461C442.69 177.941 438.45 174.461 435.17 170.181C434.59 169.421 433.29 170.171 433.87 170.941L433.86 170.931Z" fill="black"/>
<path d="M429.55 145.311C429.98 139.261 432.05 133.491 432.35 127.431C432.4 126.471 430.9 126.471 430.85 127.431C430.71 130.351 430.16 133.171 429.51 136.021C428.81 139.091 428.27 142.171 428.05 145.311C427.98 146.271 429.48 146.271 429.55 145.311Z" fill="black"/>
<path d="M438.1 93.4814C442.56 86.6614 450.26 82.2114 458.43 81.9414C459.87 81.8914 459.88 79.6414 458.43 79.6914C449.45 79.9914 441.07 84.8514 436.16 92.3514C435.36 93.5714 437.31 94.6914 438.1 93.4914V93.4814Z" fill="black"/>
<path d="M467.27 82.9015C471.03 84.3915 474.88 85.6714 478.9 86.2114C482.92 86.7514 486.67 86.3614 490.52 85.3114C494.37 84.2614 497.93 82.9515 501.79 83.4415C505.18 83.8715 507.69 85.9315 509.1 88.9815C510.51 92.0315 510.87 95.8014 511.06 99.2514C511.14 100.691 513.39 100.701 513.31 99.2514C512.98 93.2715 512.09 85.6915 506.2 82.5015C502.81 80.6715 498.79 80.8915 495.14 81.7215C490.79 82.7115 486.7 84.3415 482.17 84.2315C477.21 84.1215 472.42 82.5415 467.85 80.7315C466.5 80.2015 465.92 82.3715 467.25 82.9015H467.27Z" fill="black"/>
<path d="M516.94 126.621C522.1 122.981 522.68 116.221 523.47 110.471C524.01 106.541 524.55 102.611 525.09 98.6815C525.63 94.7515 526 90.9615 526.74 87.1615C527.02 85.7515 524.85 85.1415 524.57 86.5615C523.89 90.0415 523.53 93.5915 523.05 97.1015C522.53 100.871 522.02 104.631 521.5 108.401C520.77 113.701 520.66 121.251 515.8 124.681C514.63 125.511 515.75 127.461 516.94 126.621Z" fill="black"/>
<path d="M429.26 70.5614C432.13 75.2514 430.03 80.8414 428.18 85.4914C426.09 90.7514 424.69 96.0414 424.43 101.721C424.36 103.171 426.61 103.161 426.68 101.721C426.82 98.6614 427.27 95.6314 428.06 92.6714C428.85 89.7114 429.97 87.1314 431.02 84.3914C432.84 79.6214 434.04 74.0714 431.2 69.4314C430.45 68.2014 428.5 69.3314 429.26 70.5714V70.5614Z" fill="black"/>
<path d="M426 110.191C426.52 114.031 427.99 117.711 430.25 120.861C430.79 121.611 432.03 121.591 432.31 120.591C433.75 115.331 435.18 110.061 436.62 104.801C437 103.401 434.83 102.801 434.45 104.201C433.01 109.461 431.58 114.731 430.14 119.991L432.2 119.721C430.03 116.711 428.68 113.261 428.18 109.591C428.1 108.981 427.33 108.661 426.8 108.801C426.15 108.971 425.93 109.581 426.01 110.181L426 110.191Z" fill="black"/>
<path d="M511.05 121.311C510.69 126.121 510.08 130.911 509.75 135.721C509.68 136.681 511.18 136.681 511.25 135.721C511.58 130.911 512.19 126.121 512.55 121.311C512.62 120.351 511.12 120.351 511.05 121.311Z" fill="black"/>
<path d="M524.96 80.2014C522.95 74.1214 518.1 69.4714 513.21 65.5814C508.32 61.6914 502.73 58.4014 496.84 55.9714C490.95 53.5414 484.86 52.0114 478.6 51.3314C472.34 50.6514 465.06 50.6614 458.74 52.5614C455.02 53.6814 451.74 55.7414 448.22 57.3114C444.7 58.8814 440.48 59.8814 436.9 57.9214C436.15 57.5114 435.21 58.0214 435.21 58.8914C435.19 61.0214 435.06 63.4914 433.84 65.3114C432.52 67.2814 429.95 66.4014 428.54 68.2314C427.66 69.3814 429.61 70.5014 430.48 69.3714C430.83 68.9214 431.95 69.0114 432.46 68.8914C432.97 68.7714 433.47 68.5714 433.92 68.3114C434.85 67.7614 435.58 66.8914 436.08 65.9514C437.21 63.8114 437.45 61.2814 437.46 58.9014L435.77 59.8714C441.82 63.1914 448.27 59.8614 453.78 57.0814C457.01 55.4514 460.29 54.2914 463.87 53.7514C467.13 53.2614 470.48 53.1514 473.78 53.2614C486.27 53.6714 498.55 57.8814 508.76 65.0614C514.35 68.9914 520.59 74.1214 522.8 80.8214C523.25 82.1914 525.43 81.6014 524.97 80.2214L524.96 80.2014Z" fill="black"/>
<path d="M469.51 128.201C469.9 125.771 470.29 123.351 470.69 120.921C470.93 119.411 468.62 118.761 468.38 120.281C467.99 122.711 467.6 125.131 467.2 127.561C466.96 129.071 469.27 129.721 469.51 128.201Z" fill="black"/>
<path d="M455.3 164.721C455.65 163.491 459.18 163.991 466.29 163.231C470.68 162.761 474.23 162.051 476.55 161.511C475.9 162.751 475.18 163.691 474.61 164.341C473.81 165.241 473.07 165.851 472.65 166.181C471.85 166.791 471.11 167.221 470.49 167.541C468.97 168.341 465.84 169.981 462.08 169.311C458.45 168.671 454.93 166.011 455.3 164.721Z" fill="white"/>
<path d="M455.66 164.821C455.89 164.161 457.64 164.221 458.15 164.181C460.01 164.041 461.88 163.981 463.74 163.841C468.08 163.501 472.4 162.841 476.65 161.871L476.23 161.321C474.32 164.881 471.02 167.391 467.18 168.571C464.86 169.281 462.46 169.251 460.18 168.401C459.11 168.001 458.06 167.461 457.15 166.771C456.65 166.391 455.53 165.561 455.67 164.821C455.76 164.351 455.04 164.151 454.95 164.621C454.65 166.251 456.91 167.601 458.07 168.241C460.44 169.561 463.14 170.131 465.82 169.661C470.45 168.861 474.68 165.801 476.89 161.691C477.05 161.401 476.79 161.071 476.47 161.141C471.62 162.251 466.69 162.921 461.72 163.221C460.08 163.321 458.42 163.321 456.79 163.561C456.08 163.671 455.22 163.841 454.95 164.611C454.79 165.071 455.52 165.261 455.67 164.811L455.66 164.821Z" fill="black"/>
<path opacity="0.1" d="M459.77 185.711C467.69 186.761 470.43 185.711 480.16 184.021C478.75 186.731 475.6 192.041 470.04 195.901C464.52 199.731 459.42 200.201 456.92 200.221C455.19 200.081 451.39 199.441 447.79 195.901C441.5 189.721 441.07 179.861 441.02 178.391" fill="black"/>
<path d="M436.43 188.451C438.76 185.271 441.35 180.891 441.2 176.811C441.16 175.661 439.36 175.651 439.4 176.811C439.54 180.571 437.03 184.611 434.87 187.541C434.18 188.471 435.75 189.371 436.42 188.451H436.43Z" fill="black"/>
<path d="M490.26 177.421C490.28 183.801 492.47 189.801 495.83 195.161C496.85 196.791 499.45 195.291 498.42 193.651C495.33 188.721 493.28 183.301 493.26 177.421C493.26 175.491 490.25 175.491 490.26 177.421Z" fill="black"/>
<path d="M436 72.5614C437.45 72.5614 437.45 70.3114 436 70.3114C434.55 70.3114 434.55 72.5614 436 72.5614Z" fill="black"/>
<path d="M469.3 218.221C469.22 222.371 465.72 226.481 465.3 228.281C463.49 236.041 463.96 237.171 461.3 242.811C459.98 238.351 458.65 233.881 457.3 229.401C456.13 225.501 454.96 221.631 453.78 217.761" fill="#F2F2F2"/>
<path d="M457.96 280.711C458.92 273.091 460.04 265.501 460.99 257.881C462.02 249.611 462.45 241.291 465.15 233.341C468.17 224.431 472.05 215.831 475.08 206.891H473.34C475.29 212.581 477.24 218.271 479.19 223.951C479.39 224.521 480.24 224.921 480.69 224.351C488.02 215.021 495.36 205.681 502.69 196.351C503.08 195.861 503.01 195.311 502.51 194.941L498.51 191.941C498.26 191.751 497.86 191.791 497.6 191.941C489.6 196.571 481.38 200.941 473.6 205.941C472.63 206.561 473.53 208.121 474.51 207.491C479.15 204.511 484.01 201.871 488.78 199.121C491.52 197.541 494.53 196.131 497.11 194.301C498.06 193.631 498.71 193.871 497.78 193.621C498.96 193.941 500.59 195.731 501.61 196.491L501.43 195.081C494.1 204.411 486.76 213.751 479.43 223.081L480.93 223.481C478.98 217.791 477.03 212.101 475.08 206.421C474.79 205.571 473.63 205.561 473.34 206.421C470.2 215.701 466.02 224.641 463.06 233.941C460.68 241.391 460.25 249.091 459.32 256.801C458.39 264.511 457.17 272.741 456.16 280.731C456.02 281.881 457.82 281.871 457.96 280.731V280.711Z" fill="black"/>
<path d="M467.02 272.771C469.84 272.551 470.93 277.431 467.13 277.701" stroke="black" stroke-width="2" stroke-linecap="round" stroke-linejoin="round"/>
<path d="M449.34 206.201L441.34 223.201L427.52 187.761L431.52 184.761L448.34 205.201L449.34 206.201Z" fill="#0071BC"/>
<path d="M450.7 206.071C443.98 199.351 438.26 191.401 432.16 184.121C431.93 183.851 431.36 183.761 431.07 183.981L427.07 186.981C426.78 187.201 426.5 187.611 426.66 188.001C431.51 199.981 436.35 211.971 441.2 223.951C441.46 224.581 442.48 224.941 442.84 224.161C445.51 218.491 448.17 212.831 450.84 207.161L449.2 206.951C453.01 219.941 457.42 232.841 460.44 246.051C460.7 247.181 462.43 246.701 462.18 245.571C459.16 232.361 454.75 219.461 450.94 206.471C450.74 205.781 449.64 205.521 449.3 206.261C446.63 211.931 443.97 217.591 441.3 223.261L442.94 223.471C438.17 211.691 433.42 199.901 428.64 188.121C428.58 187.971 428.41 187.711 428.41 187.551C428.38 188.971 428.1 188.111 429.25 187.591C430.11 187.201 430.77 186.321 431.59 185.841C432.41 185.361 430.34 185.171 431.17 185.721C433.41 187.221 435.43 190.811 437.14 192.851C441.18 197.671 444.99 202.901 449.44 207.351C450.26 208.171 451.53 206.901 450.71 206.081L450.7 206.071Z" fill="black"/>
<path d="M474.27 206.601L480.12 223.671L502.12 195.671L498.12 192.671L476.12 205.381L474.12 206.671" fill="#0071BC"/>
<path d="M473.4 206.841C475.35 212.531 477.3 218.221 479.25 223.901C479.45 224.471 480.3 224.871 480.75 224.301C488.08 214.971 495.42 205.631 502.75 196.301C503.14 195.811 503.07 195.261 502.57 194.891L498.57 191.891C498.32 191.701 497.92 191.741 497.66 191.891C489.66 196.521 481.44 200.891 473.66 205.891C472.69 206.511 473.59 208.071 474.57 207.441C479.21 204.461 484.07 201.821 488.84 199.071C491.58 197.491 494.59 196.081 497.17 194.251C498.12 193.581 498.77 193.821 497.84 193.571C499.02 193.891 500.65 195.681 501.67 196.441L501.49 195.031C494.16 204.361 486.82 213.701 479.49 223.031L480.99 223.431C479.04 217.741 477.09 212.051 475.14 206.371C474.77 205.281 473.03 205.751 473.4 206.851V206.841Z" fill="black"/>
<path opacity="0.3" d="M444.56 220.401L446.77 224.761L453.52 218.761L450.15 208.761L444.56 220.401Z" fill="black"/>
<path opacity="0.3" d="M479.74 220.621L477.54 224.981L470.78 218.981L474.16 208.981L479.74 220.621Z" fill="black"/>
<path d="M488.9 112.521C490.36 111.611 491.95 110.791 493.69 110.621C495.64 110.421 497.43 111.141 498.97 112.301C499.36 112.591 499.73 111.941 499.35 111.651C497.71 110.421 495.76 109.671 493.69 109.871C491.82 110.061 490.1 110.891 488.53 111.881C488.12 112.131 488.5 112.781 488.91 112.531L488.9 112.521Z" fill="black"/>
<path d="M452.11 111.251C450.73 109.821 448.99 108.721 446.95 108.681C444.91 108.641 442.86 109.711 441.21 110.961C440.83 111.251 441.21 111.901 441.59 111.611C443.1 110.471 444.87 109.451 446.81 109.431C448.75 109.411 450.31 110.451 451.58 111.781C451.91 112.131 452.44 111.601 452.11 111.251Z" fill="black"/>
<path d="M184.34 700.081C125.9 700.081 78.52 652.701 78.52 594.261C78.52 534.241 127.18 485.581 187.2 485.581H193.76C253.78 485.581 302.44 534.241 302.44 594.261C302.44 652.701 255.06 700.081 196.62 700.081" fill="#63C6FA"/>
<path d="M184.34 700.081C125.9 700.081 78.52 652.701 78.52 594.261C78.52 534.241 127.18 485.581 187.2 485.581H193.76C253.78 485.581 302.44 534.241 302.44 594.261C302.44 652.701 255.06 700.081 196.62 700.081" stroke="black" stroke-width="2" stroke-miterlimit="10"/>
<path d="M200.48 661.771C199.05 685.401 197.55 707.102 196.03 726.852C195.9 728.492 196.9 730.001 198.46 730.531C202.34 731.861 206.21 733.211 210.07 734.581C221.24 738.521 232.51 742.222 243.55 746.572C244.38 746.902 245.31 746.911 246.14 746.591C254.5 743.411 262.89 740.301 271.61 738.352C276.15 737.341 280.74 736.512 285.37 735.732C287.15 735.432 288.44 733.882 288.39 732.072C287.91 714.342 287.5 694.921 287.77 673.651C287.77 673.411 287.76 673.172 287.71 672.932C285.1 658.312 264.76 648.531 248.19 647.151C247.81 647.121 247.45 647.032 247.1 646.882L230.39 639.742C230.3 639.702 230.21 639.662 230.12 639.612L219.28 633.852C219.19 633.802 219.1 633.752 219.01 633.692C217.55 632.742 216.06 631.752 215.04 630.292C213.93 628.702 213.5 626.732 212.84 624.872C212.52 623.962 212.54 622.971 212.95 622.091L213.8 620.281C204.46 634.701 185.71 639.502 173.29 628.062C171.58 626.592 169 627.051 167.82 628.971C165.57 632.621 161.67 636.521 155.16 638.781L150.3 640.802C150.2 640.842 150.11 640.892 150.01 640.932C126.1 653.382 114.14 660.692 108.89 685.622C107.68 691.382 106.88 697.222 106.1 703.072C105.84 705.032 107.2 706.822 109.15 707.122C113.86 707.842 118.55 708.632 123.22 709.512C136.73 712.052 150.07 715.402 163.3 719.252C165.4 719.862 167.57 718.482 167.89 716.322C170.81 696.712 173.05 677.862 174.47 659.852C174.7 656.922 178.1 655.562 180.4 657.392C182 658.662 183.86 659.562 185.87 659.982C189.04 660.632 192.28 660.032 195.07 658.422C197.56 656.982 200.65 658.892 200.48 661.762V661.771Z" fill="#0083DF"/>
<path opacity="0.1" d="M174.6 628.081C179.61 626.321 185.72 624.612 192.77 623.512C200.55 622.292 207.47 622.121 213.14 622.371C212.3 624.801 210.28 629.661 205.69 634.031C201.13 638.371 196.33 640.031 193.93 640.681C192.24 641.021 188.49 641.501 184.37 639.721C177.18 636.611 174.91 629.191 174.59 628.081H174.6Z" fill="black"/>
<path d="M147.82 574.371C148.08 579.611 148.6 585.521 149.61 590.671C150.34 594.161 151.52 598.281 153.45 602.711C154.56 605.251 155.75 607.511 156.92 609.501C157.86 611.411 159.1 613.441 160.56 615.601C160.99 616.241 161.5 616.921 162.19 617.751C163.79 619.601 165.61 621.541 167.67 623.521C169.85 625.621 171.98 627.441 173.99 629.031C175.27 630.041 183.37 636.601 194.4 634.351C201.46 632.911 208.15 628.511 212.61 621.901C214.96 619.681 217.78 616.531 220.29 612.321C221.75 609.861 222.83 607.521 223.62 605.451C224.54 602.761 225.45 599.631 226.12 596.091C226.79 592.561 227.23 589.081 227.3 587.011L227.51 584.551C227.63 579.301 227.14 573.391 226.52 568.181L215.62 534.991L198.31 528.491L166.53 531.211L149.87 547.171L147.83 574.381L147.82 574.371Z" fill="#FFE4B4"/>
<path d="M185.56 517.411L183.01 517.581C179.52 519.201 175.57 520.491 171.83 521.301C168.09 522.111 164.07 522.041 160.59 520.371C160.91 521.171 160.61 522.181 159.93 522.661C159.15 523.211 158.11 523.041 157.17 523.201C156.23 523.361 155.23 524.291 155.64 525.181C153.93 525.651 152.24 526.171 150.56 526.741L147.82 530.661C144.93 537.331 140.09 543.041 134.11 546.841C135.58 547.211 137.01 547.731 138.39 548.391C137.32 550.911 136.5 553.551 135.93 556.251C135.77 557.011 135.64 557.841 135.98 558.541C136.32 559.241 137.33 559.601 137.82 559.011C138.71 560.781 137.23 562.791 137.04 564.771C136.74 567.971 139.72 570.301 141.78 572.721C143.97 575.301 145.32 578.641 145.56 582.071C145.6 582.641 145.62 583.251 145.92 583.721C146.22 584.201 148.39 583.861 148.77 583.461C148.77 578.551 147.74 573.021 149.21 566.191C150.4 560.671 152 555.911 153.6 552.001C153.79 551.491 154.9 549.551 157.19 548.011C158.67 547.021 160.67 546.661 162.19 547.611C162.53 547.821 162.87 548.101 163.27 548.101C164.11 548.091 164.55 546.821 165.39 546.801C165.84 546.791 166.22 547.151 166.54 547.491C167.13 548.121 167.73 548.741 168.32 549.371C170.29 545.491 173.48 542.321 177.27 540.451L179.75 539.351C182.04 538.591 184.6 538.761 186.8 539.801L189.47 539.731C195.88 535.651 199.41 542.791 204.46 545.121L221.92 554.631C222.9 557.661 223.83 560.961 224.65 564.521C225.72 569.161 226.44 573.511 226.92 577.471C227.16 577.491 227.5 577.491 227.9 577.421C228.22 577.361 228.53 577.251 228.83 577.101C228.8 574.281 228.77 571.471 228.74 568.651C228.72 566.721 228.71 564.731 229.34 562.931C230 561.061 231.25 558.741 229.87 557.351C229.64 557.121 229.35 556.941 229.17 556.661C228.36 555.311 230.9 554.161 230.9 552.581C230.9 551.801 230.25 551.111 230.34 550.341C230.43 549.641 231.08 549.191 231.39 548.571C232 547.341 231.15 545.881 230.34 544.771C228.54 542.291 226.73 539.821 224.93 537.341L223.37 534.731C222.54 533.601 221.26 532.651 221.6 531.611C221.88 530.771 224.09 529.581 224.75 529.161C217.93 527.491 203.51 522.531 198.66 519.121L194.96 518.481C191.83 518.111 188.7 517.731 185.57 517.361" fill="#F4AC00"/>
<path d="M157.73 592.421C159.18 592.421 159.18 590.171 157.73 590.171C156.28 590.171 156.28 592.421 157.73 592.421Z" fill="black"/>
<path d="M202.46 558.901C202.01 559.051 198.96 560.111 196.61 559.111C196.2 558.941 195.44 558.561 195.18 557.841C194.92 557.121 195.5 556.551 195.7 556.361C198 555.651 203.03 554.471 209.83 555.151C215.12 555.681 218.67 556.871 221.4 558.181C221.82 558.871 221.79 559.271 221.68 559.511C220.67 561.771 210.29 556.261 202.47 558.901H202.46Z" fill="black"/>
<path d="M147.67 574.422C147.95 579.942 148.43 585.482 149.49 590.922C149.67 591.872 151.12 591.471 150.94 590.521C149.91 585.221 149.45 579.812 149.17 574.422C149.12 573.462 147.62 573.452 147.67 574.422Z" fill="black"/>
<path d="M156.88 609.931C159.05 613.221 160.59 616.871 163.4 619.711C164.08 620.401 165.14 619.341 164.46 618.651C161.75 615.911 160.27 612.351 158.17 609.171C157.64 608.371 156.34 609.121 156.87 609.931H156.88Z" fill="black"/>
<path d="M225.62 587.221C225.51 590.271 225 593.331 224.43 596.331C223.86 599.331 223.17 602.621 221.95 605.561C221.77 606.011 222.49 606.201 222.67 605.761C223.92 602.741 224.6 599.471 225.2 596.271C225.76 593.291 226.26 590.251 226.37 587.221C226.39 586.741 225.64 586.741 225.62 587.221Z" fill="black"/>
<path d="M147.09 529.771C144.26 536.201 139.71 541.731 133.79 545.551C133 546.061 133.09 547.351 134.06 547.611C135.44 547.971 136.78 548.441 138.07 549.051L137.55 547.781C136.39 550.561 135.17 553.701 134.92 556.721C134.83 557.811 135.07 558.991 136.02 559.651C136.97 560.311 138.01 560.231 138.86 559.501L136.98 559.001C137.59 560.471 136.67 561.931 136.34 563.371C136.08 564.501 136.08 565.671 136.44 566.781C137.24 569.201 139.23 570.951 140.87 572.811C142.82 575.011 144.1 577.731 144.55 580.641C144.73 581.821 144.56 583.241 145.37 584.221C146.04 585.041 147.23 585.341 148.13 584.701C149.3 583.871 148.18 581.921 146.99 582.761C147.28 582.551 146.68 579.791 146.61 579.431C146.38 578.301 146.04 577.211 145.59 576.151C144.68 573.971 143.33 572.141 141.73 570.421C140.38 568.971 138.53 567.291 138.39 565.171C138.24 562.811 140.13 560.801 139.14 558.411C138.81 557.611 137.95 557.321 137.26 557.911C137.37 557.821 137.15 557.381 137.13 557.111C137.11 556.701 137.26 556.191 137.35 555.791C137.53 554.971 137.74 554.151 137.97 553.341C138.45 551.651 139.04 550.001 139.71 548.371C139.88 547.951 139.6 547.291 139.19 547.101C137.72 546.411 136.21 545.851 134.64 545.441L134.91 547.501C141.14 543.491 146.04 537.691 149.02 530.921C149.6 529.611 147.66 528.461 147.08 529.781L147.09 529.771Z" fill="black"/>
<path d="M227.16 578.001C227.99 578.001 228.68 577.791 229.43 577.441C229.66 577.331 229.8 577.041 229.8 576.791C229.77 574.391 229.75 571.991 229.72 569.591C229.7 567.331 229.55 565.001 230.28 562.821C230.79 561.331 231.65 559.791 231.42 558.161C231.33 557.531 231.06 556.981 230.62 556.511C229.93 555.791 229.92 555.641 230.57 554.821C231.29 553.911 232.08 552.981 231.81 551.731C231.57 550.621 231.13 550.261 231.87 549.211C232.31 548.591 232.59 547.971 232.57 547.201C232.51 545.411 231.07 543.871 230.08 542.501C228.66 540.541 227.23 538.591 225.81 536.631C225.25 535.861 223.95 536.611 224.51 537.391C225.84 539.211 227.17 541.041 228.5 542.861C229.12 543.721 229.8 544.551 230.36 545.451C231.05 546.551 231.31 547.461 230.48 548.561C230.11 549.051 229.83 549.531 229.82 550.171C229.82 550.911 230.4 551.541 230.37 552.251C230.32 553.431 228.83 554.161 228.55 555.301C228.17 556.831 229.91 557.271 229.96 558.621C230.03 560.341 228.83 562.021 228.49 563.681C228.08 565.691 228.2 567.781 228.22 569.821C228.25 572.141 228.27 574.461 228.3 576.781L228.67 576.131C228.13 576.381 227.75 576.491 227.16 576.481C226.19 576.481 226.19 577.971 227.16 577.981V578.001Z" fill="black"/>
<path d="M182.87 516.611C179.42 518.191 175.79 519.401 172.09 520.211C168.39 521.021 164.63 520.981 161.21 519.401C160.65 519.141 159.91 519.571 160.11 520.251C160.75 522.451 157.78 521.831 156.57 522.381C155.5 522.871 154.82 523.891 155.16 525.071L155.68 524.151C153.97 524.621 152.28 525.141 150.6 525.711C149.69 526.021 150.08 527.471 151 527.161C152.68 526.591 154.37 526.071 156.08 525.601C156.47 525.491 156.72 525.071 156.6 524.681C156.26 523.521 158.25 523.581 158.84 523.521C159.47 523.461 160.09 523.331 160.62 522.941C161.59 522.221 161.87 520.981 161.55 519.861L160.45 520.711C167.87 524.141 176.65 521.121 183.63 517.921C184.51 517.521 183.75 516.231 182.87 516.621V516.611Z" fill="black"/>
<path d="M198.51 519.441C202.2 521.991 206.66 523.581 210.83 525.131C215.4 526.831 220.05 528.391 224.78 529.561L224.6 528.191C223.51 528.881 221.9 529.561 221.25 530.751C220.37 532.361 222.19 533.821 223.07 534.941C223.66 535.701 224.72 534.631 224.13 533.881C223.72 533.351 223.17 532.871 222.82 532.301C222.43 531.661 222.56 531.391 223.08 530.961C223.78 530.381 224.6 529.961 225.36 529.481C225.89 529.151 225.83 528.271 225.18 528.111C220.56 526.971 216.02 525.451 211.56 523.801C207.39 522.261 202.94 520.681 199.26 518.141C198.46 517.591 197.71 518.891 198.5 519.441H198.51Z" fill="black"/>
<path d="M177.13 539.492C173.16 541.492 169.96 544.742 167.91 548.682L169.09 548.532C168.16 547.552 166.8 545.362 165.19 545.812C164.56 545.992 164.15 546.902 163.59 547.012C163.22 547.082 162.8 546.642 162.5 546.492C162.2 546.342 161.84 546.212 161.5 546.132C157.74 545.262 155.09 548.622 153.2 551.322C152.64 552.112 153.94 552.862 154.5 552.082C156.17 549.702 158.91 546.142 162.19 548.042C163.1 548.562 163.84 548.742 164.72 548.042C165.38 547.522 165.44 547.042 166.26 547.712C166.91 548.232 167.47 548.982 168.04 549.592C168.36 549.932 169 549.862 169.22 549.442C171.16 545.712 174.14 542.692 177.9 540.792C178.76 540.362 178 539.062 177.14 539.492H177.13Z" fill="black"/>
<path d="M190.08 540.071C191.3 539.311 192.66 538.781 194.12 538.981C195.41 539.151 196.57 539.831 197.61 540.561C199.87 542.161 201.78 544.261 204.31 545.461C205.18 545.871 205.94 544.581 205.07 544.161C202.33 542.871 200.32 540.501 197.8 538.881C196.62 538.131 195.32 537.571 193.92 537.461C192.28 537.331 190.7 537.921 189.33 538.781C188.51 539.291 189.26 540.591 190.09 540.081L190.08 540.071Z" fill="black"/>
<path d="M180.18 539.761C182.3 539.071 184.63 539.191 186.65 540.141C187.02 540.311 187.46 540.241 187.68 539.871C187.87 539.541 187.78 539.021 187.41 538.841C185.02 537.721 182.3 537.501 179.78 538.311C178.87 538.611 179.26 540.051 180.18 539.761Z" fill="black"/>
<path d="M169.45 561.982C169.94 562.052 173.22 562.552 175.47 561.132C175.86 560.882 176.58 560.372 176.73 559.612C176.88 558.852 176.2 558.382 175.96 558.232C173.49 557.942 168.16 557.681 161.32 559.581C155.99 561.061 152.56 562.892 149.98 564.682C149.66 565.442 149.76 565.842 149.91 566.052C151.3 568.122 161.03 560.752 169.46 561.972L169.45 561.982Z" fill="black"/>
<path d="M182.01 593.101C184.22 594.841 186.9 596.081 189.78 595.741C192.66 595.401 194.82 593.811 196.6 591.791C197.11 591.211 196.26 590.361 195.75 590.941C194.19 592.721 192.2 594.211 189.8 594.541C187.26 594.891 184.83 593.801 182.87 592.261C182.27 591.791 181.41 592.631 182.02 593.111L182.01 593.101Z" fill="black"/>
<path d="M187.41 573.381C187.72 576.991 188.03 580.611 188.34 584.221C188.41 584.981 189.61 584.991 189.54 584.221C189.23 580.611 188.92 576.991 188.61 573.381C188.54 572.621 187.34 572.611 187.41 573.381Z" fill="black"/>
<path d="M249.3 630.641L238.43 629.681C233.46 628.661 209.75 627.381 213.99 630.641C245.43 654.681 254.43 641.681 278.72 657.871C272.42 643.981 266.99 637.381 249.3 630.641Z" fill="#DF3A16"/>
<path d="M195.17 729.411L200.69 651.661C191.2 657.741 181.71 657.741 175.39 651.661L172.23 672.921C170.13 691.571 168.29 706.991 166.51 720.211C176.12 723.071 185.68 726.171 195.18 729.411H195.17Z" fill="white"/>
<path d="M247.19 696.951C248.04 711.351 249.46 730.751 249.94 745.171" stroke="black" stroke-width="3" stroke-linecap="round" stroke-linejoin="round"/>
<path d="M106.1 702.001C106.37 688.051 110.37 674.521 118.37 663.061C127.37 652.651 138.37 646.401 150.37 640.731" stroke="#020303" stroke-width="2" stroke-linecap="round" stroke-linejoin="round"/>
<path d="M249.28 745.411L247.35 698.371C247.35 686.941 240.13 655.501 244.94 641.221L225.68 635.501C216.51 656.861 236.13 707.241 246.93 746.301C247.71 746.001 248.49 745.711 249.27 745.421L249.28 745.411Z" fill="#DF3A16"/>
<path d="M245.43 642.681C240.43 654.681 248.43 687.251 248.43 698.681" stroke="#020303" stroke-width="2" stroke-linecap="round" stroke-linejoin="round"/>
<path d="M224.93 636.181C222.61 642.921 221.37 648.491 222.37 655.781C228.37 685.981 238.55 717.781 247.93 746.181" stroke="#020303" stroke-width="3" stroke-linecap="round" stroke-linejoin="round"/>
<path d="M216.92 711.201C220.571 711.201 223.53 708.511 223.53 705.191C223.53 701.872 220.571 699.181 216.92 699.181C213.269 699.181 210.31 701.872 210.31 705.191C210.31 708.511 213.269 711.201 216.92 711.201Z" fill="#DA8D19"/>
<path d="M288.3 710.871C288.81 719.561 288.07 728.211 288.43 735.681C290.38 735.371 291.43 732.681 295.46 734.111" fill="#DF3A16"/>
<path d="M211.85 622.511C211.74 627.661 215.16 629.671 217.87 633.961L205.87 645.411C199.05 652.621 194.41 655.721 184.79 654.631C176.87 653.741 167.16 644.551 163.87 634.991L168.83 624.241L211.84 622.491" fill="#FFE4B4"/>
<path d="M155.67 639.741C159.35 638.451 162.89 636.511 165.43 633.491C167.28 631.301 168.46 628.751 169.42 626.071C169.62 625.501 169.19 624.841 168.63 624.691C168.01 624.521 167.45 624.901 167.25 625.481C166.44 627.741 165.46 629.991 163.84 631.911C161.54 634.641 158.41 636.411 155.07 637.591C153.71 638.071 154.3 640.241 155.67 639.761V639.741Z" fill="black"/>
<path d="M173.03 628.741C182.49 637.001 196.43 636.351 206.29 629.111C209.14 627.021 211.58 624.471 213.58 621.551C214.13 620.751 212.83 620.001 212.28 620.791C205.89 630.151 193.73 635.651 182.57 632.372C179.43 631.451 176.55 629.821 174.08 627.671C173.36 627.041 172.29 628.091 173.02 628.731L173.03 628.741Z" fill="black"/>
<path d="M174.45 651.072C172.01 672.372 169.36 693.652 166.41 714.882" stroke="black" stroke-width="3" stroke-linecap="round"/>
<path d="M163.87 635.011C178.87 662.081 191.87 663.121 217.87 633.971" stroke="black" stroke-width="2" stroke-linecap="round"/>
<path d="M201.37 652.191C199.83 676.481 198.28 700.761 196.48 725.031" stroke="black" stroke-width="3" stroke-linecap="round" stroke-linejoin="round"/>
<path d="M219.93 695.951C227.59 701.631 222.49 716.791 209.71 707.321" stroke="black" stroke-width="3" stroke-linecap="round" stroke-linejoin="round"/>
<path opacity="0.1" d="M169.06 625.371C175.87 629.801 179.77 633.211 186.87 633.961C194.7 634.791 199.87 632.921 211.87 624.591C210.48 626.731 203.25 636.131 197.75 639.171C192.29 642.191 187.35 643.321 184.87 643.331C183.16 643.221 179.32 641.961 175.75 639.171C169.53 634.291 169.1 626.521 169.06 625.361V625.371Z" fill="black"/>
<path d="M210.07 572.151C215.86 572.151 215.87 563.151 210.07 563.151C204.27 563.151 204.27 572.151 210.07 572.151Z" fill="black"/>
<path d="M204.32 565.911C207.53 563.801 211.41 563.191 214.94 564.911C215.37 565.121 215.75 564.471 215.32 564.261C211.56 562.421 207.38 563.001 203.94 565.261C203.54 565.521 203.91 566.171 204.32 565.911Z" fill="black"/>
<path d="M162.95 576.072C168.74 576.072 168.75 567.072 162.95 567.072C157.15 567.072 157.15 576.072 162.95 576.072Z" fill="black"/>
<path d="M157.2 569.831C160.41 567.721 164.29 567.111 167.82 568.831C168.25 569.041 168.63 568.391 168.2 568.181C164.44 566.341 160.26 566.921 156.82 569.181C156.42 569.441 156.79 570.091 157.2 569.831Z" fill="black"/>
<path opacity="0.9" d="M214.93 629.181C220.64 629.191 227.59 628.751 233.93 629.181C239.3 629.541 242.93 629.181 249.3 630.641C251.93 631.181 260.85 634.201 267.93 641.181C273.37 646.541 276.6 653.741 277.93 657.181" stroke="black" stroke-miterlimit="10"/>
<path d="M211.54 623.931C212.17 625.341 212.52 626.861 213.07 628.301C213.66 629.831 214.47 631.211 215.68 632.331C216.89 633.451 218.27 634.281 219.62 635.151C221.18 636.161 222.74 637.161 224.3 638.171L223.78 636.901C223.71 637.211 223.65 637.521 223.58 637.831C223.28 639.241 225.44 639.851 225.75 638.431C225.82 638.121 225.88 637.811 225.95 637.501C226.06 636.991 225.87 636.511 225.43 636.231C223.99 635.301 222.55 634.371 221.11 633.441C219.8 632.591 218.41 631.801 217.26 630.741C214.99 628.651 214.68 625.491 213.47 622.791C213.22 622.231 212.42 622.111 211.93 622.391C211.36 622.721 211.28 623.381 211.53 623.931H211.54Z" fill="black"/>
<path d="M288.43 734.681C288.27 715.731 287.36 694.531 287.43 675.681C287.49 657.801 264.37 646.401 247.84 646.981" stroke="black" stroke-width="2" stroke-linecap="round" stroke-linejoin="round"/>
<path d="M248.43 698.681L250.43 745.681" stroke="#020303" stroke-width="2" stroke-miterlimit="10"/>
<path d="M189.65 621.111C183.91 621.591 181.94 618.741 181.33 618.081C180.65 617.331 180.06 618.141 181.79 617.501C182.65 617.181 182.32 616.611 184.94 616.141C186.23 615.911 187.76 614.691 189.94 614.251C192.7 613.701 202.08 608.711 202.61 609.671C203.12 610.381 200.27 615.711 198.91 617.001C197.55 618.291 192.43 620.781 189.65 621.121" fill="white"/>
<path d="M185.92 620.811C186.93 619.841 189.33 617.831 193.03 617.021C195.79 616.421 198.1 616.741 199.41 617.021C198.85 617.841 197.29 620.401 194.08 621.131C190.35 621.981 187.29 621.241 185.91 620.811" fill="#F9C9FF"/>
<path d="M183.12 617.221C186.66 616.411 190.15 615.391 193.55 614.141C195.26 613.511 196.96 612.821 198.63 612.091C199.49 611.711 200.35 611.321 201.21 610.921C201.96 610.571 202.73 610.041 203.52 609.811L202.94 609.731L203.01 609.781L202.64 609.131C202.41 611.151 201.33 613.281 200.38 615.051C199.18 617.301 197.73 619.131 195.28 620.051C192.71 621.011 189.92 621.381 187.3 620.391C185.88 619.861 184.48 619.121 183.13 618.431C182.62 618.171 182.16 617.821 181.66 617.551C181.51 617.351 181.47 617.401 181.57 617.691L181.76 617.581C182.08 617.611 182.79 617.271 183.13 617.201C184.07 617.011 183.68 615.561 182.73 615.751C181.84 615.931 180.39 616.211 180.1 617.261C179.87 618.111 180.65 618.691 181.28 619.101C182.46 619.861 183.78 620.391 185.05 620.991C186.52 621.691 187.94 622.261 189.58 622.421C192.02 622.661 194.59 622.071 196.79 621.031C198.99 619.991 200.41 618.111 201.54 616.051C202.67 613.991 203.88 611.511 204.15 609.111C204.18 608.841 203.98 608.611 203.78 608.461C203.25 608.081 202.63 608.541 202.15 608.781C201.36 609.181 200.56 609.561 199.75 609.931C197.85 610.811 195.92 611.631 193.96 612.371C190.3 613.761 186.55 614.881 182.73 615.751C181.79 615.961 182.19 617.411 183.13 617.201L183.12 617.221Z" fill="black"/>
<path d="M206.23 609.722C206.64 609.002 206.63 608.122 206.17 607.422C205.71 606.722 204.9 606.272 204.04 606.212C203.47 606.172 202.9 606.322 202.39 606.572C202.04 606.742 202.35 607.262 202.69 607.092C203.52 606.692 204.57 606.701 205.29 607.331C205.91 607.871 206.12 608.702 205.71 609.432C205.52 609.772 206.04 610.072 206.23 609.732V609.722Z" fill="black"/>
<path d="M165.46 582.901C172.502 582.901 178.21 577.193 178.21 570.151C178.21 563.11 172.502 557.401 165.46 557.401H164.46C157.418 557.401 151.71 563.11 151.71 570.151C151.71 577.193 157.418 582.901 164.46 582.901H165.46Z" stroke="black" stroke-width="0.75" stroke-miterlimit="10"/>
<path d="M208.67 579.001C215.712 579.001 221.42 573.293 221.42 566.251C221.42 559.21 215.712 553.501 208.67 553.501H207.67C200.628 553.501 194.92 559.21 194.92 566.251C194.92 573.293 200.628 579.001 207.67 579.001H208.67Z" stroke="black" stroke-width="0.75" stroke-miterlimit="10"/>
<path d="M194.71 567.911C191.23 566.671 188.41 566.721 186.71 566.911C182.51 567.381 178.39 569.471 178.49 569.841C178.51 569.891 178.61 569.911 178.71 569.911C180.71 569.141 183.42 568.311 186.71 567.911C189.89 567.531 192.63 567.661 194.71 567.911Z" fill="black"/>
<path d="M194.81 567.541C190.06 565.891 185.21 566.221 180.59 568.171C180.31 568.291 177.18 569.551 178.38 570.211C178.73 570.401 179.16 570.131 179.49 570.011C180.07 569.801 180.65 569.611 181.23 569.431C182.52 569.041 183.83 568.731 185.16 568.501C188.31 567.961 191.53 567.901 194.7 568.271C195.18 568.331 195.17 567.581 194.7 567.521C191.92 567.191 189.12 567.201 186.34 567.571C184.91 567.761 183.5 568.031 182.11 568.401C181.48 568.571 180.85 568.751 180.22 568.961C180.02 569.031 178.8 569.601 178.66 569.511L178.85 569.831C178.85 570.021 178.88 569.871 179.05 569.771C179.22 569.671 179.39 569.561 179.57 569.461C180.12 569.161 180.7 568.911 181.28 568.681C182.78 568.091 184.34 567.631 185.93 567.381C188.85 566.911 191.8 567.291 194.59 568.261C195.05 568.421 195.24 567.691 194.79 567.541H194.81Z" fill="black"/>
<path d="M221.22 568.461L227.21 577.411" stroke="black" stroke-miterlimit="10"/>
<path d="M151.21 570.411L148.21 577.411" stroke="black" stroke-miterlimit="10"/>
<path opacity="0.7" d="M253.323 135.196L253.176 135.281C247.441 138.592 245.476 145.925 248.787 151.66L248.987 152.006C252.298 157.741 259.631 159.706 265.366 156.395L265.513 156.31C271.248 152.999 273.213 145.666 269.902 139.931L269.702 139.585C266.391 133.85 259.058 131.885 253.323 135.196Z" fill="#007DD4"/>
<path opacity="0.7" d="M510.999 663.33L510.444 663.65C491.169 674.779 484.565 699.426 495.693 718.701L496.368 719.87C507.497 739.145 532.144 745.749 551.419 734.621L551.974 734.301C571.249 723.172 577.853 698.525 566.724 679.25L566.049 678.081C554.921 658.806 530.274 652.201 510.999 663.33Z" fill="#63C6FA"/>
<g filter="url(#filter0_d_106_2)">
<rect x="545" y="78" width="198" height="113" rx="10" fill="#63C6FA"/>
</g>
<g filter="url(#filter1_d_106_2)">
<rect x="248" y="639" width="198" height="108" rx="9" fill="#2873C9"/>
</g>
<path d="M562.109 116V90.1H575.947C579.524 90.1 582.163 90.7413 583.865 92.024C585.567 93.282 586.418 94.8977 586.418 96.871C586.418 98.1783 586.048 99.35 585.308 100.386C584.593 101.397 583.544 102.199 582.163 102.791C580.782 103.383 579.08 103.679 577.057 103.679L577.797 101.681C579.82 101.681 581.559 101.965 583.014 102.532C584.494 103.099 585.629 103.926 586.418 105.011C587.232 106.072 587.639 107.354 587.639 108.859C587.639 111.104 586.702 112.855 584.827 114.113C582.977 115.371 580.264 116 576.687 116H562.109ZM570.693 109.895H575.947C576.909 109.895 577.624 109.722 578.093 109.377C578.586 109.032 578.833 108.526 578.833 107.86C578.833 107.194 578.586 106.688 578.093 106.343C577.624 105.998 576.909 105.825 575.947 105.825H570.101V100.053H574.763C575.75 100.053 576.465 99.8927 576.909 99.572C577.378 99.2267 577.612 98.7457 577.612 98.129C577.612 97.4877 577.378 97.0067 576.909 96.686C576.465 96.3653 575.75 96.205 574.763 96.205H570.693V109.895ZM590.467 116V95.761H598.422V101.866L597.127 100.127C597.744 98.5483 598.731 97.3643 600.087 96.575C601.444 95.7857 603.072 95.391 604.971 95.391V102.791C604.601 102.742 604.268 102.705 603.972 102.68C603.701 102.655 603.417 102.643 603.121 102.643C601.863 102.643 600.827 102.976 600.013 103.642C599.224 104.283 598.829 105.406 598.829 107.009V116H590.467ZM615.777 116.37C614.174 116.37 612.719 116.049 611.411 115.408C610.129 114.742 609.117 113.718 608.377 112.337C607.637 110.931 607.267 109.13 607.267 106.935V95.761H615.629V105.492C615.629 106.923 615.864 107.922 616.332 108.489C616.801 109.056 617.442 109.34 618.256 109.34C618.75 109.34 619.206 109.217 619.625 108.97C620.069 108.699 620.427 108.267 620.698 107.675C620.97 107.058 621.105 106.257 621.105 105.27V95.761H629.467V116H621.512V110.154L623.103 111.745C622.388 113.324 621.364 114.495 620.032 115.26C618.725 116 617.307 116.37 615.777 116.37ZM647.236 95.391C648.79 95.391 650.196 95.7117 651.454 96.353C652.712 96.9697 653.699 97.944 654.414 99.276C655.154 100.608 655.524 102.335 655.524 104.456V116H647.162V105.899C647.162 104.641 646.94 103.753 646.496 103.235C646.052 102.692 645.448 102.421 644.683 102.421C644.116 102.421 643.586 102.557 643.092 102.828C642.624 103.075 642.241 103.494 641.945 104.086C641.674 104.678 641.538 105.48 641.538 106.491V116H633.176V95.761H641.131V101.681L639.54 99.979C640.33 98.4497 641.39 97.3027 642.722 96.538C644.079 95.7733 645.584 95.391 647.236 95.391ZM670.21 116.37C667.916 116.37 665.881 115.926 664.105 115.038C662.354 114.125 660.972 112.88 659.961 111.301C658.95 109.722 658.444 107.909 658.444 105.862C658.444 103.815 658.95 102.002 659.961 100.423C660.972 98.8443 662.354 97.611 664.105 96.723C665.881 95.835 667.916 95.391 670.21 95.391C672.504 95.391 674.539 95.835 676.315 96.723C678.091 97.611 679.472 98.8443 680.459 100.423C681.47 102.002 681.976 103.815 681.976 105.862C681.976 107.909 681.47 109.722 680.459 111.301C679.472 112.88 678.091 114.125 676.315 115.038C674.539 115.926 672.504 116.37 670.21 116.37ZM670.21 109.858C670.827 109.858 671.382 109.71 671.875 109.414C672.368 109.118 672.763 108.674 673.059 108.082C673.355 107.465 673.503 106.725 673.503 105.862C673.503 104.974 673.355 104.246 673.059 103.679C672.763 103.087 672.368 102.643 671.875 102.347C671.382 102.051 670.827 101.903 670.21 101.903C669.593 101.903 669.038 102.051 668.545 102.347C668.052 102.643 667.657 103.087 667.361 103.679C667.065 104.246 666.917 104.974 666.917 105.862C666.917 106.725 667.065 107.465 667.361 108.082C667.657 108.674 668.052 109.118 668.545 109.414C669.038 109.71 669.593 109.858 670.21 109.858ZM684.038 121.92L687.146 111.523L688.367 116.185C686.936 116.185 685.765 115.778 684.852 114.964C683.939 114.125 683.483 112.991 683.483 111.56C683.483 110.105 683.939 108.958 684.852 108.119C685.789 107.256 686.961 106.824 688.367 106.824C689.773 106.824 690.932 107.256 691.845 108.119C692.782 108.958 693.251 110.105 693.251 111.56C693.251 111.955 693.214 112.349 693.14 112.744C693.091 113.139 692.967 113.62 692.77 114.187C692.573 114.73 692.252 115.47 691.808 116.407L689.218 121.92H684.038ZM561.311 144V127.9H569.246C571.04 127.9 572.619 128.23 573.984 128.889C575.349 129.533 576.414 130.453 577.181 131.649C577.948 132.845 578.331 134.271 578.331 135.927C578.331 137.598 577.948 139.04 577.181 140.251C576.414 141.447 575.349 142.375 573.984 143.034C572.619 143.678 571.04 144 569.246 144H561.311ZM566.739 139.768H569.016C569.783 139.768 570.45 139.622 571.017 139.331C571.6 139.04 572.052 138.61 572.374 138.043C572.696 137.46 572.857 136.755 572.857 135.927C572.857 135.114 572.696 134.424 572.374 133.857C572.052 133.29 571.6 132.86 571.017 132.569C570.45 132.278 569.783 132.132 569.016 132.132H566.739V139.768ZM580.152 144V131.419H585.35V144H580.152ZM582.751 130.407C581.8 130.407 581.041 130.154 580.474 129.648C579.907 129.142 579.623 128.513 579.623 127.762C579.623 127.011 579.907 126.382 580.474 125.876C581.041 125.37 581.8 125.117 582.751 125.117C583.702 125.117 584.461 125.355 585.028 125.83C585.595 126.305 585.879 126.919 585.879 127.67C585.879 128.467 585.595 129.127 585.028 129.648C584.461 130.154 583.702 130.407 582.751 130.407ZM587.654 144V131.419H592.599V135.214L591.794 134.133C592.177 133.152 592.791 132.416 593.634 131.925C594.477 131.434 595.489 131.189 596.67 131.189V135.789C596.44 135.758 596.233 135.735 596.049 135.72C595.88 135.705 595.704 135.697 595.52 135.697C594.738 135.697 594.094 135.904 593.588 136.318C593.097 136.717 592.852 137.414 592.852 138.411V144H587.654ZM604.977 144.23C603.444 144.23 602.102 143.946 600.952 143.379C599.817 142.812 598.936 142.037 598.307 141.056C597.678 140.059 597.364 138.94 597.364 137.698C597.364 136.425 597.671 135.298 598.284 134.317C598.913 133.336 599.764 132.569 600.837 132.017C601.926 131.465 603.145 131.189 604.494 131.189C605.736 131.189 606.878 131.434 607.921 131.925C608.979 132.416 609.822 133.144 610.451 134.11C611.095 135.076 611.417 136.272 611.417 137.698C611.417 137.882 611.409 138.089 611.394 138.319C611.379 138.534 611.363 138.733 611.348 138.917H601.665V136.41H608.588L606.633 137.077C606.633 136.586 606.541 136.172 606.357 135.835C606.188 135.482 605.951 135.214 605.644 135.03C605.337 134.831 604.969 134.731 604.54 134.731C604.111 134.731 603.735 134.831 603.413 135.03C603.106 135.214 602.869 135.482 602.7 135.835C602.531 136.172 602.447 136.586 602.447 137.077V137.859C602.447 138.396 602.554 138.856 602.769 139.239C602.984 139.622 603.29 139.914 603.689 140.113C604.088 140.297 604.571 140.389 605.138 140.389C605.721 140.389 606.196 140.312 606.564 140.159C606.947 140.006 607.346 139.776 607.76 139.469L610.474 142.206C609.861 142.865 609.102 143.371 608.197 143.724C607.308 144.061 606.234 144.23 604.977 144.23ZM619.819 144.23C618.378 144.23 617.098 143.954 615.978 143.402C614.859 142.85 613.977 142.083 613.333 141.102C612.705 140.105 612.39 138.971 612.39 137.698C612.39 136.425 612.705 135.298 613.333 134.317C613.977 133.336 614.859 132.569 615.978 132.017C617.098 131.465 618.378 131.189 619.819 131.189C621.353 131.189 622.664 131.519 623.752 132.178C624.841 132.837 625.592 133.75 626.006 134.915L621.981 136.893C621.721 136.31 621.399 135.889 621.015 135.628C620.647 135.367 620.241 135.237 619.796 135.237C619.413 135.237 619.053 135.329 618.715 135.513C618.393 135.697 618.133 135.973 617.933 136.341C617.749 136.694 617.657 137.146 617.657 137.698C617.657 138.25 617.749 138.71 617.933 139.078C618.133 139.446 618.393 139.722 618.715 139.906C619.053 140.09 619.413 140.182 619.796 140.182C620.241 140.182 620.647 140.052 621.015 139.791C621.399 139.53 621.721 139.109 621.981 138.526L626.006 140.504C625.592 141.669 624.841 142.582 623.752 143.241C622.664 143.9 621.353 144.23 619.819 144.23ZM633.504 144.23C631.772 144.23 630.422 143.816 629.456 142.988C628.49 142.145 628.007 140.857 628.007 139.124V128.59H633.205V139.078C633.205 139.461 633.305 139.76 633.504 139.975C633.719 140.19 633.98 140.297 634.286 140.297C634.731 140.297 635.122 140.182 635.459 139.952L636.701 143.563C636.303 143.793 635.82 143.962 635.252 144.069C634.7 144.176 634.118 144.23 633.504 144.23ZM626.282 135.904V132.109H635.781V135.904H626.282ZM644.62 144.23C643.087 144.23 641.745 143.946 640.595 143.379C639.461 142.812 638.579 142.037 637.95 141.056C637.322 140.059 637.007 138.94 637.007 137.698C637.007 136.425 637.314 135.298 637.927 134.317C638.556 133.336 639.407 132.569 640.48 132.017C641.569 131.465 642.788 131.189 644.137 131.189C645.379 131.189 646.522 131.434 647.564 131.925C648.622 132.416 649.466 133.144 650.094 134.11C650.738 135.076 651.06 136.272 651.06 137.698C651.06 137.882 651.053 138.089 651.037 138.319C651.022 138.534 651.007 138.733 650.991 138.917H641.308V136.41H648.231L646.276 137.077C646.276 136.586 646.184 136.172 646 135.835C645.832 135.482 645.594 135.214 645.287 135.03C644.981 134.831 644.613 134.731 644.183 134.731C643.754 134.731 643.378 134.831 643.056 135.03C642.75 135.214 642.512 135.482 642.343 135.835C642.175 136.172 642.09 136.586 642.09 137.077V137.859C642.09 138.396 642.198 138.856 642.412 139.239C642.627 139.622 642.934 139.914 643.332 140.113C643.731 140.297 644.214 140.389 644.781 140.389C645.364 140.389 645.839 140.312 646.207 140.159C646.591 140.006 646.989 139.776 647.403 139.469L650.117 142.206C649.504 142.865 648.745 143.371 647.84 143.724C646.951 144.061 645.878 144.23 644.62 144.23ZM657.945 144.23C656.948 144.23 656.043 144.031 655.231 143.632C654.433 143.218 653.805 142.582 653.345 141.723C652.885 140.849 652.655 139.73 652.655 138.365V131.419H657.853V137.468C657.853 138.357 657.998 138.978 658.29 139.331C658.581 139.684 658.98 139.86 659.486 139.86C659.792 139.86 660.076 139.783 660.337 139.63C660.613 139.461 660.835 139.193 661.004 138.825C661.172 138.442 661.257 137.943 661.257 137.33V131.419H666.455V144H661.51V140.366L662.499 141.355C662.054 142.336 661.418 143.065 660.59 143.54C659.777 144 658.895 144.23 657.945 144.23ZM668.76 144V131.419H673.705V135.214L672.9 134.133C673.284 133.152 673.897 132.416 674.74 131.925C675.584 131.434 676.596 131.189 677.776 131.189V135.789C677.546 135.758 677.339 135.735 677.155 135.72C676.987 135.705 676.81 135.697 676.626 135.697C675.844 135.697 675.2 135.904 674.694 136.318C674.204 136.717 673.958 137.414 673.958 138.411V144H668.76ZM691.665 144.23C690.576 144.23 689.564 143.969 688.629 143.448C687.709 142.911 686.973 142.16 686.421 141.194C685.869 140.213 685.593 139.047 685.593 137.698C685.593 136.349 685.869 135.191 686.421 134.225C686.973 133.244 687.709 132.492 688.629 131.971C689.564 131.45 690.576 131.189 691.665 131.189C692.769 131.189 693.674 131.427 694.379 131.902C695.084 132.362 695.606 133.075 695.943 134.041C696.28 134.992 696.449 136.211 696.449 137.698C696.449 139.201 696.288 140.435 695.966 141.401C695.659 142.367 695.153 143.08 694.448 143.54C693.758 144 692.83 144.23 691.665 144.23ZM692.907 140.182C693.29 140.182 693.635 140.09 693.942 139.906C694.249 139.722 694.494 139.446 694.678 139.078C694.862 138.695 694.954 138.235 694.954 137.698C694.954 137.146 694.862 136.694 694.678 136.341C694.494 135.973 694.249 135.697 693.942 135.513C693.635 135.329 693.29 135.237 692.907 135.237C692.524 135.237 692.179 135.329 691.872 135.513C691.565 135.697 691.32 135.973 691.136 136.341C690.952 136.694 690.86 137.146 690.86 137.698C690.86 138.235 690.952 138.695 691.136 139.078C691.32 139.446 691.565 139.722 691.872 139.906C692.179 140.09 692.524 140.182 692.907 140.182ZM695.115 144V142.298L695.092 137.698L694.862 133.098V126.934H700.06V144H695.115ZM709.308 144.23C707.775 144.23 706.433 143.946 705.283 143.379C704.148 142.812 703.267 142.037 702.638 141.056C702.009 140.059 701.695 138.94 701.695 137.698C701.695 136.425 702.002 135.298 702.615 134.317C703.244 133.336 704.095 132.569 705.168 132.017C706.257 131.465 707.476 131.189 708.825 131.189C710.067 131.189 711.209 131.434 712.252 131.925C713.31 132.416 714.153 133.144 714.782 134.11C715.426 135.076 715.748 136.272 715.748 137.698C715.748 137.882 715.74 138.089 715.725 138.319C715.71 138.534 715.694 138.733 715.679 138.917H705.996V136.41H712.919L710.964 137.077C710.964 136.586 710.872 136.172 710.688 135.835C710.519 135.482 710.282 135.214 709.975 135.03C709.668 134.831 709.3 134.731 708.871 134.731C708.442 134.731 708.066 134.831 707.744 135.03C707.437 135.214 707.2 135.482 707.031 135.835C706.862 136.172 706.778 136.586 706.778 137.077V137.859C706.778 138.396 706.885 138.856 707.1 139.239C707.315 139.622 707.621 139.914 708.02 140.113C708.419 140.297 708.902 140.389 709.469 140.389C710.052 140.389 710.527 140.312 710.895 140.159C711.278 140.006 711.677 139.776 712.091 139.469L714.805 142.206C714.192 142.865 713.433 143.371 712.528 143.724C711.639 144.061 710.565 144.23 709.308 144.23ZM722.31 144.23C721.237 144.23 720.179 144.115 719.136 143.885C718.094 143.655 717.25 143.356 716.606 142.988L718.032 139.561C718.63 139.914 719.32 140.19 720.102 140.389C720.9 140.588 721.674 140.688 722.425 140.688C723.054 140.688 723.476 140.634 723.69 140.527C723.92 140.42 724.035 140.274 724.035 140.09C724.035 139.906 723.905 139.776 723.644 139.699C723.384 139.607 723.039 139.538 722.609 139.492C722.18 139.446 721.705 139.392 721.183 139.331C720.677 139.254 720.164 139.147 719.642 139.009C719.121 138.871 718.646 138.664 718.216 138.388C717.787 138.112 717.442 137.744 717.181 137.284C716.921 136.809 716.79 136.211 716.79 135.49C716.79 134.693 717.028 133.972 717.503 133.328C717.994 132.684 718.715 132.17 719.665 131.787C720.631 131.388 721.82 131.189 723.23 131.189C724.15 131.189 725.07 131.273 725.99 131.442C726.91 131.611 727.7 131.871 728.359 132.224L726.933 135.651C726.289 135.298 725.653 135.061 725.024 134.938C724.411 134.8 723.836 134.731 723.299 134.731C722.64 134.731 722.188 134.792 721.942 134.915C721.712 135.038 721.597 135.176 721.597 135.329C721.597 135.513 721.728 135.651 721.988 135.743C722.249 135.835 722.594 135.904 723.023 135.95C723.453 135.996 723.92 136.057 724.426 136.134C724.948 136.195 725.461 136.303 725.967 136.456C726.489 136.594 726.964 136.801 727.393 137.077C727.823 137.353 728.168 137.729 728.428 138.204C728.689 138.664 728.819 139.254 728.819 139.975C728.819 140.726 728.582 141.432 728.106 142.091C727.631 142.735 726.91 143.256 725.944 143.655C724.978 144.038 723.767 144.23 722.31 144.23ZM564.715 172L559.655 159.419H564.991L568.832 169.631H566.141L570.235 159.419H575.157L570.097 172H564.715ZM582.561 172.23C581.028 172.23 579.686 171.946 578.536 171.379C577.401 170.812 576.52 170.037 575.891 169.056C575.262 168.059 574.948 166.94 574.948 165.698C574.948 164.425 575.255 163.298 575.868 162.317C576.497 161.336 577.348 160.569 578.421 160.017C579.51 159.465 580.729 159.189 582.078 159.189C583.32 159.189 584.462 159.434 585.505 159.925C586.563 160.416 587.406 161.144 588.035 162.11C588.679 163.076 589.001 164.272 589.001 165.698C589.001 165.882 588.993 166.089 588.978 166.319C588.963 166.534 588.947 166.733 588.932 166.917H579.249V164.41H586.172L584.217 165.077C584.217 164.586 584.125 164.172 583.941 163.835C583.772 163.482 583.535 163.214 583.228 163.03C582.921 162.831 582.553 162.731 582.124 162.731C581.695 162.731 581.319 162.831 580.997 163.03C580.69 163.214 580.453 163.482 580.284 163.835C580.115 164.172 580.031 164.586 580.031 165.077V165.859C580.031 166.396 580.138 166.856 580.353 167.239C580.568 167.622 580.874 167.914 581.273 168.113C581.672 168.297 582.155 168.389 582.722 168.389C583.305 168.389 583.78 168.312 584.148 168.159C584.531 168.006 584.93 167.776 585.344 167.469L588.058 170.206C587.445 170.865 586.686 171.371 585.781 171.724C584.892 172.061 583.818 172.23 582.561 172.23ZM599.381 159.189C600.347 159.189 601.221 159.388 602.003 159.787C602.785 160.17 603.399 160.776 603.843 161.604C604.303 162.432 604.533 163.505 604.533 164.824V172H599.335V165.721C599.335 164.939 599.197 164.387 598.921 164.065C598.645 163.728 598.27 163.559 597.794 163.559C597.442 163.559 597.112 163.643 596.805 163.812C596.514 163.965 596.276 164.226 596.092 164.594C595.924 164.962 595.839 165.46 595.839 166.089V172H590.641V159.419H595.586V163.099L594.597 162.041C595.088 161.09 595.747 160.377 596.575 159.902C597.419 159.427 598.354 159.189 599.381 159.189ZM612.863 172.23C611.13 172.23 609.781 171.816 608.815 170.988C607.849 170.145 607.366 168.857 607.366 167.124V156.59H612.564V167.078C612.564 167.461 612.663 167.76 612.863 167.975C613.077 168.19 613.338 168.297 613.645 168.297C614.089 168.297 614.48 168.182 614.818 167.952L616.06 171.563C615.661 171.793 615.178 171.962 614.611 172.069C614.059 172.176 613.476 172.23 612.863 172.23ZM605.641 163.904V160.109H615.14V163.904H605.641ZM623.979 172.23C622.445 172.23 621.104 171.946 619.954 171.379C618.819 170.812 617.937 170.037 617.309 169.056C616.68 168.059 616.366 166.94 616.366 165.698C616.366 164.425 616.672 163.298 617.286 162.317C617.914 161.336 618.765 160.569 619.839 160.017C620.927 159.465 622.146 159.189 623.496 159.189C624.738 159.189 625.88 159.434 626.923 159.925C627.981 160.416 628.824 161.144 629.453 162.11C630.097 163.076 630.419 164.272 630.419 165.698C630.419 165.882 630.411 166.089 630.396 166.319C630.38 166.534 630.365 166.733 630.35 166.917H620.667V164.41H627.59L625.635 165.077C625.635 164.586 625.543 164.172 625.359 163.835C625.19 163.482 624.952 163.214 624.646 163.03C624.339 162.831 623.971 162.731 623.542 162.731C623.112 162.731 622.737 162.831 622.415 163.03C622.108 163.214 621.87 163.482 621.702 163.835C621.533 164.172 621.449 164.586 621.449 165.077V165.859C621.449 166.396 621.556 166.856 621.771 167.239C621.985 167.622 622.292 167.914 622.691 168.113C623.089 168.297 623.572 168.389 624.14 168.389C624.722 168.389 625.198 168.312 625.566 168.159C625.949 168.006 626.348 167.776 626.762 167.469L629.476 170.206C628.862 170.865 628.103 171.371 627.199 171.724C626.309 172.061 625.236 172.23 623.979 172.23ZM636.981 172.23C635.908 172.23 634.85 172.115 633.807 171.885C632.765 171.655 631.921 171.356 631.277 170.988L632.703 167.561C633.301 167.914 633.991 168.19 634.773 168.389C635.571 168.588 636.345 168.688 637.096 168.688C637.725 168.688 638.147 168.634 638.361 168.527C638.591 168.42 638.706 168.274 638.706 168.09C638.706 167.906 638.576 167.776 638.315 167.699C638.055 167.607 637.71 167.538 637.28 167.492C636.851 167.446 636.376 167.392 635.854 167.331C635.348 167.254 634.835 167.147 634.313 167.009C633.792 166.871 633.317 166.664 632.887 166.388C632.458 166.112 632.113 165.744 631.852 165.284C631.592 164.809 631.461 164.211 631.461 163.49C631.461 162.693 631.699 161.972 632.174 161.328C632.665 160.684 633.386 160.17 634.336 159.787C635.302 159.388 636.491 159.189 637.901 159.189C638.821 159.189 639.741 159.273 640.661 159.442C641.581 159.611 642.371 159.871 643.03 160.224L641.604 163.651C640.96 163.298 640.324 163.061 639.695 162.938C639.082 162.8 638.507 162.731 637.97 162.731C637.311 162.731 636.859 162.792 636.613 162.915C636.383 163.038 636.268 163.176 636.268 163.329C636.268 163.513 636.399 163.651 636.659 163.743C636.92 163.835 637.265 163.904 637.694 163.95C638.124 163.996 638.591 164.057 639.097 164.134C639.619 164.195 640.132 164.303 640.638 164.456C641.16 164.594 641.635 164.801 642.064 165.077C642.494 165.353 642.839 165.729 643.099 166.204C643.36 166.664 643.49 167.254 643.49 167.975C643.49 168.726 643.253 169.432 642.777 170.091C642.302 170.735 641.581 171.256 640.615 171.655C639.649 172.038 638.438 172.23 636.981 172.23Z" fill="white"/>
<path d="M269.658 679.592C267.635 679.592 265.81 679.271 264.182 678.63C262.554 677.964 261.197 677.002 260.112 675.744L264.811 670.194C265.502 671.033 266.18 671.674 266.846 672.118C267.512 672.537 268.203 672.747 268.918 672.747C270.793 672.747 271.73 671.674 271.73 669.528V659.686H262.924V653.1H280.351V669.01C280.351 672.562 279.438 675.214 277.613 676.965C275.788 678.716 273.136 679.592 269.658 679.592ZM292.532 679.37C290.929 679.37 289.473 679.049 288.166 678.408C286.883 677.742 285.872 676.718 285.132 675.337C284.392 673.931 284.022 672.13 284.022 669.935V658.761H292.384V668.492C292.384 669.923 292.618 670.922 293.087 671.489C293.556 672.056 294.197 672.34 295.011 672.34C295.504 672.34 295.961 672.217 296.38 671.97C296.824 671.699 297.182 671.267 297.453 670.675C297.724 670.058 297.86 669.257 297.86 668.27V658.761H306.222V679H298.267V673.154L299.858 674.745C299.143 676.324 298.119 677.495 296.787 678.26C295.48 679 294.061 679.37 292.532 679.37ZM309.931 679V651.546H318.293V679H309.931ZM333.173 679.37C330.707 679.37 328.548 678.914 326.698 678.001C324.873 677.088 323.455 675.843 322.443 674.264C321.432 672.661 320.926 670.86 320.926 668.862C320.926 666.815 321.42 665.002 322.406 663.423C323.418 661.844 324.787 660.611 326.513 659.723C328.265 658.835 330.226 658.391 332.396 658.391C334.394 658.391 336.232 658.786 337.909 659.575C339.611 660.364 340.968 661.536 341.979 663.09C343.015 664.644 343.533 666.568 343.533 668.862C343.533 669.158 343.521 669.491 343.496 669.861C343.472 670.206 343.447 670.527 343.422 670.823H327.845V666.79H338.982L335.837 667.863C335.837 667.074 335.689 666.408 335.393 665.865C335.122 665.298 334.74 664.866 334.246 664.57C333.753 664.249 333.161 664.089 332.47 664.089C331.78 664.089 331.175 664.249 330.657 664.57C330.164 664.866 329.782 665.298 329.51 665.865C329.239 666.408 329.103 667.074 329.103 667.863V669.121C329.103 669.984 329.276 670.724 329.621 671.341C329.967 671.958 330.46 672.426 331.101 672.747C331.743 673.043 332.52 673.191 333.432 673.191C334.37 673.191 335.134 673.068 335.726 672.821C336.343 672.574 336.984 672.204 337.65 671.711L342.016 676.114C341.03 677.175 339.809 677.989 338.353 678.556C336.923 679.099 335.196 679.37 333.173 679.37ZM354.09 679.37C352.364 679.37 350.662 679.185 348.984 678.815C347.307 678.445 345.95 677.964 344.914 677.372L347.208 671.859C348.17 672.426 349.28 672.87 350.538 673.191C351.821 673.512 353.067 673.672 354.275 673.672C355.287 673.672 355.965 673.586 356.31 673.413C356.68 673.24 356.865 673.006 356.865 672.71C356.865 672.414 356.656 672.204 356.236 672.081C355.817 671.933 355.262 671.822 354.571 671.748C353.881 671.674 353.116 671.588 352.277 671.489C351.463 671.366 350.637 671.193 349.798 670.971C348.96 670.749 348.195 670.416 347.504 669.972C346.814 669.528 346.259 668.936 345.839 668.196C345.42 667.431 345.21 666.469 345.21 665.31C345.21 664.027 345.593 662.868 346.357 661.832C347.147 660.796 348.306 659.97 349.835 659.353C351.389 658.712 353.301 658.391 355.57 658.391C357.05 658.391 358.53 658.527 360.01 658.798C361.49 659.069 362.761 659.489 363.821 660.056L361.527 665.569C360.491 665.002 359.468 664.619 358.456 664.422C357.47 664.2 356.545 664.089 355.681 664.089C354.621 664.089 353.893 664.188 353.498 664.385C353.128 664.582 352.943 664.804 352.943 665.051C352.943 665.347 353.153 665.569 353.572 665.717C353.992 665.865 354.547 665.976 355.237 666.05C355.928 666.124 356.68 666.223 357.494 666.346C358.333 666.445 359.159 666.617 359.973 666.864C360.812 667.086 361.577 667.419 362.267 667.863C362.958 668.307 363.513 668.911 363.932 669.676C364.352 670.416 364.561 671.366 364.561 672.525C364.561 673.734 364.179 674.868 363.414 675.929C362.65 676.965 361.49 677.804 359.936 678.445C358.382 679.062 356.434 679.37 354.09 679.37ZM366.538 684.92L369.646 674.523L370.867 679.185C369.436 679.185 368.265 678.778 367.352 677.964C366.439 677.125 365.983 675.991 365.983 674.56C365.983 673.105 366.439 671.958 367.352 671.119C368.289 670.256 369.461 669.824 370.867 669.824C372.273 669.824 373.432 670.256 374.345 671.119C375.282 671.958 375.751 673.105 375.751 674.56C375.751 674.955 375.714 675.349 375.64 675.744C375.591 676.139 375.467 676.62 375.27 677.187C375.073 677.73 374.752 678.47 374.308 679.407L371.718 684.92H366.538ZM265.807 707V695.109H261.092V690.9H275.95V695.109H271.235V707H265.807ZM282.887 707.23C281.354 707.23 280.012 706.946 278.862 706.379C277.727 705.812 276.846 705.037 276.217 704.056C275.588 703.059 275.274 701.94 275.274 700.698C275.274 699.425 275.581 698.298 276.194 697.317C276.823 696.336 277.674 695.569 278.747 695.017C279.836 694.465 281.055 694.189 282.404 694.189C283.646 694.189 284.788 694.434 285.831 694.925C286.889 695.416 287.732 696.144 288.361 697.11C289.005 698.076 289.327 699.272 289.327 700.698C289.327 700.882 289.319 701.089 289.304 701.319C289.289 701.534 289.273 701.733 289.258 701.917H279.575V699.41H286.498L284.543 700.077C284.543 699.586 284.451 699.172 284.267 698.835C284.098 698.482 283.861 698.214 283.554 698.03C283.247 697.831 282.879 697.731 282.45 697.731C282.021 697.731 281.645 697.831 281.323 698.03C281.016 698.214 280.779 698.482 280.61 698.835C280.441 699.172 280.357 699.586 280.357 700.077V700.859C280.357 701.396 280.464 701.856 280.679 702.239C280.894 702.622 281.2 702.914 281.599 703.113C281.998 703.297 282.481 703.389 283.048 703.389C283.631 703.389 284.106 703.312 284.474 703.159C284.857 703.006 285.256 702.776 285.67 702.469L288.384 705.206C287.771 705.865 287.012 706.371 286.107 706.724C285.218 707.061 284.144 707.23 282.887 707.23ZM290.967 707V694.419H295.912V698.214L295.107 697.133C295.491 696.152 296.104 695.416 296.947 694.925C297.791 694.434 298.803 694.189 299.983 694.189V698.789C299.753 698.758 299.546 698.735 299.362 698.72C299.194 698.705 299.017 698.697 298.833 698.697C298.051 698.697 297.407 698.904 296.901 699.318C296.411 699.717 296.165 700.414 296.165 701.411V707H290.967ZM318.109 694.189C319.059 694.189 319.91 694.388 320.662 694.787C321.428 695.17 322.026 695.776 322.456 696.604C322.9 697.432 323.123 698.505 323.123 699.824V707H317.925V700.721C317.925 699.939 317.794 699.387 317.534 699.065C317.273 698.728 316.936 698.559 316.522 698.559C316.215 698.559 315.939 698.636 315.694 698.789C315.448 698.942 315.249 699.188 315.096 699.525C314.958 699.847 314.889 700.292 314.889 700.859V707H309.691V700.721C309.691 699.939 309.568 699.387 309.323 699.065C309.077 698.728 308.732 698.559 308.288 698.559C307.981 698.559 307.705 698.636 307.46 698.789C307.214 698.942 307.015 699.188 306.862 699.525C306.724 699.847 306.655 700.292 306.655 700.859V707H301.457V694.419H306.402V698.03L305.39 697.018C305.865 696.067 306.501 695.362 307.299 694.902C308.096 694.427 308.985 694.189 309.967 694.189C311.071 694.189 312.044 694.48 312.888 695.063C313.746 695.63 314.321 696.535 314.613 697.777L313.026 697.524C313.486 696.481 314.153 695.669 315.027 695.086C315.916 694.488 316.943 694.189 318.109 694.189ZM325.378 707V694.419H330.576V707H325.378ZM327.977 693.407C327.026 693.407 326.267 693.154 325.7 692.648C325.132 692.142 324.849 691.513 324.849 690.762C324.849 690.011 325.132 689.382 325.7 688.876C326.267 688.37 327.026 688.117 327.977 688.117C328.927 688.117 329.686 688.355 330.254 688.83C330.821 689.305 331.105 689.919 331.105 690.67C331.105 691.467 330.821 692.127 330.254 692.648C329.686 693.154 328.927 693.407 327.977 693.407ZM341.619 694.189C342.585 694.189 343.459 694.388 344.241 694.787C345.023 695.17 345.637 695.776 346.081 696.604C346.541 697.432 346.771 698.505 346.771 699.824V707H341.573V700.721C341.573 699.939 341.435 699.387 341.159 699.065C340.883 698.728 340.508 698.559 340.032 698.559C339.68 698.559 339.35 698.643 339.043 698.812C338.752 698.965 338.514 699.226 338.33 699.594C338.162 699.962 338.077 700.46 338.077 701.089V707H332.879V694.419H337.824V698.099L336.835 697.041C337.326 696.09 337.985 695.377 338.813 694.902C339.657 694.427 340.592 694.189 341.619 694.189ZM356.642 707V704.769L356.274 704.171V699.939C356.274 699.326 356.082 698.858 355.699 698.536C355.331 698.214 354.725 698.053 353.882 698.053C353.315 698.053 352.74 698.145 352.157 698.329C351.574 698.498 351.076 698.735 350.662 699.042L349.006 695.615C349.742 695.155 350.624 694.802 351.651 694.557C352.678 694.312 353.683 694.189 354.664 694.189C356.826 694.189 358.497 694.672 359.678 695.638C360.874 696.604 361.472 698.137 361.472 700.238V707H356.642ZM353.077 707.23C352.05 707.23 351.191 707.054 350.501 706.701C349.811 706.348 349.29 705.881 348.937 705.298C348.584 704.7 348.408 704.041 348.408 703.32C348.408 702.507 348.615 701.817 349.029 701.25C349.443 700.683 350.072 700.253 350.915 699.962C351.774 699.671 352.855 699.525 354.158 699.525H356.78V702.032H354.986C354.434 702.032 354.028 702.124 353.767 702.308C353.522 702.477 353.399 702.737 353.399 703.09C353.399 703.381 353.506 703.627 353.721 703.826C353.951 704.01 354.258 704.102 354.641 704.102C354.994 704.102 355.316 704.01 355.607 703.826C355.914 703.627 356.136 703.32 356.274 702.906L356.941 704.447C356.742 705.382 356.32 706.08 355.676 706.54C355.032 707 354.166 707.23 353.077 707.23ZM363.718 707V689.934H368.916V707H363.718ZM378.166 707.23C376.633 707.23 375.291 706.946 374.141 706.379C373.007 705.812 372.125 705.037 371.496 704.056C370.868 703.059 370.553 701.94 370.553 700.698C370.553 699.425 370.86 698.298 371.473 697.317C372.102 696.336 372.953 695.569 374.026 695.017C375.115 694.465 376.334 694.189 377.683 694.189C378.925 694.189 380.068 694.434 381.11 694.925C382.168 695.416 383.012 696.144 383.64 697.11C384.284 698.076 384.606 699.272 384.606 700.698C384.606 700.882 384.599 701.089 384.583 701.319C384.568 701.534 384.553 701.733 384.537 701.917H374.854V699.41H381.777L379.822 700.077C379.822 699.586 379.73 699.172 379.546 698.835C379.378 698.482 379.14 698.214 378.833 698.03C378.527 697.831 378.159 697.731 377.729 697.731C377.3 697.731 376.924 697.831 376.602 698.03C376.296 698.214 376.058 698.482 375.889 698.835C375.721 699.172 375.636 699.586 375.636 700.077V700.859C375.636 701.396 375.744 701.856 375.958 702.239C376.173 702.622 376.48 702.914 376.878 703.113C377.277 703.297 377.76 703.389 378.327 703.389C378.91 703.389 379.385 703.312 379.753 703.159C380.137 703.006 380.535 702.776 380.949 702.469L383.663 705.206C383.05 705.865 382.291 706.371 381.386 706.724C380.497 707.061 379.424 707.23 378.166 707.23ZM399.306 707.368C397.957 707.368 396.654 707.215 395.396 706.908C394.139 706.601 393.104 706.203 392.291 705.712L394.039 701.756C394.806 702.201 395.657 702.561 396.592 702.837C397.543 703.098 398.463 703.228 399.352 703.228C399.874 703.228 400.28 703.197 400.571 703.136C400.878 703.059 401.1 702.96 401.238 702.837C401.376 702.699 401.445 702.538 401.445 702.354C401.445 702.063 401.284 701.833 400.962 701.664C400.64 701.495 400.211 701.357 399.674 701.25C399.153 701.127 398.578 701.005 397.949 700.882C397.321 700.744 396.684 700.568 396.04 700.353C395.412 700.138 394.829 699.855 394.292 699.502C393.771 699.149 393.349 698.689 393.027 698.122C392.705 697.539 392.544 696.819 392.544 695.96C392.544 694.963 392.82 694.059 393.372 693.246C393.94 692.418 394.775 691.759 395.879 691.268C396.999 690.777 398.386 690.532 400.042 690.532C401.131 690.532 402.204 690.647 403.262 690.877C404.32 691.107 405.271 691.46 406.114 691.935L404.481 695.868C403.684 695.469 402.91 695.17 402.158 694.971C401.422 694.772 400.702 694.672 399.996 694.672C399.475 694.672 399.061 694.718 398.754 694.81C398.448 694.902 398.225 695.025 398.087 695.178C397.965 695.331 397.903 695.5 397.903 695.684C397.903 695.96 398.064 696.182 398.386 696.351C398.708 696.504 399.13 696.635 399.651 696.742C400.188 696.849 400.771 696.964 401.399 697.087C402.043 697.21 402.68 697.378 403.308 697.593C403.937 697.808 404.512 698.091 405.033 698.444C405.57 698.797 405.999 699.257 406.321 699.824C406.643 700.391 406.804 701.097 406.804 701.94C406.804 702.921 406.521 703.826 405.953 704.654C405.401 705.467 404.573 706.126 403.469 706.632C402.365 707.123 400.978 707.368 399.306 707.368Z" fill="white"/>
<defs>
<filter id="filter0_d_106_2" x="541" y="78" width="206" height="121" filterUnits="userSpaceOnUse" color-interpolation-filters="sRGB">
<feFlood flood-opacity="0" result="BackgroundImageFix"/>
<feColorMatrix in="SourceAlpha" type="matrix" values="0 0 0 0 0 0 0 0 0 0 0 0 0 0 0 0 0 0 127 0" result="hardAlpha"/>
<feOffset dy="4"/>
<feGaussianBlur stdDeviation="2"/>
<feComposite in2="hardAlpha" operator="out"/>
<feColorMatrix type="matrix" values="0 0 0 0 0 0 0 0 0 0 0 0 0 0 0 0 0 0 0.25 0"/>
<feBlend mode="normal" in2="BackgroundImageFix" result="effect1_dropShadow_106_2"/>
<feBlend mode="normal" in="SourceGraphic" in2="effect1_dropShadow_106_2" result="shape"/>
</filter>
<filter id="filter1_d_106_2" x="244" y="639" width="206" height="119" filterUnits="userSpaceOnUse" color-interpolation-filters="sRGB">
<feFlood flood-opacity="0" result="BackgroundImageFix"/>
<feColorMatrix in="SourceAlpha" type="matrix" values="0 0 0 0 0 0 0 0 0 0 0 0 0 0 0 0 0 0 127 0" result="hardAlpha"/>
<feOffset dy="7"/>
<feGaussianBlur stdDeviation="2"/>
<feComposite in2="hardAlpha" operator="out"/>
<feColorMatrix type="matrix" values="0 0 0 0 0 0 0 0 0 0 0 0 0 0 0 0 0 0 0.25 0"/>
<feBlend mode="normal" in2="BackgroundImageFix" result="effect1_dropShadow_106_2"/>
<feBlend mode="normal" in="SourceGraphic" in2="effect1_dropShadow_106_2" result="shape"/>
</filter>
</defs>
</svg>
