<svg width="136" height="136" viewBox="0 0 136 136" fill="none" xmlns="http://www.w3.org/2000/svg">
<path d="M105 76.9513C104.869 76.9513 104.807 77.0609 104.771 76.9513H68.0001C68.0002 72.5204 67.9998 77.1544 68.0002 64.8344C68.0004 59.4121 72.7712 56.8974 79.0732 55C84.5 56.6062 86.5 57.1416 93.2221 55C98.0008 56.513 103.68 58.026 104.152 63.3214C104.779 74.578 104.669 76.6413 104.771 76.9513H105Z" fill="white"/>
<path d="M105 76.9513C104.5 76.9513 105 78.5575 104.152 63.3214C103.68 58.026 98.0008 56.513 93.2221 55C86.5 57.1416 84.5 56.6062 79.0732 55C72.7712 56.8974 68.0004 59.4121 68.0002 64.8344C67.9998 77.1544 68.0002 72.5204 68.0001 76.9513H105Z" stroke="#2873C9" stroke-width="3" stroke-linecap="round"/>
<mask id="path-3-inside-1_901_166" fill="white">
<rect x="9" y="75" width="107" height="21" rx="2"/>
</mask>
<rect x="9" y="75" width="107" height="21" rx="2" fill="white" stroke="#2873C9" stroke-width="6" mask="url(#path-3-inside-1_901_166)"/>
<path d="M47.5 50C47.5 54.6944 43.6944 58.5 39 58.5C34.3056 58.5 30.5 54.6944 30.5 50C30.5 45.3056 34.3056 41.5 39 41.5C43.6944 41.5 47.5 45.3056 47.5 50Z" fill="white" stroke="#2873C9" stroke-width="3"/>
<path d="M93.5 44.5C93.5 48.2864 90.2241 51.5 86 51.5C81.7759 51.5 78.5 48.2864 78.5 44.5C78.5 40.7136 81.7759 37.5 86 37.5C90.2241 37.5 93.5 40.7136 93.5 44.5Z" fill="white" stroke="#2873C9" stroke-width="3"/>
<path d="M59.3092 71.1951V96.1219C59.3092 97.2086 58.4414 98.093 57.3549 98.1179L20.8221 98.9532C19.7 98.9789 18.7764 98.0758 18.7764 96.9533C18.7763 90.8109 18.7765 87.0196 18.7765 73.0488C18.7764 66.6383 23.766 63.5399 30.4726 61.2412C30.9344 61.083 31.44 61.1086 31.8905 61.2967C37.0604 63.455 40.0684 63.8504 46.3423 61.2965C46.8015 61.1096 47.3134 61.0896 47.7823 61.2503L47.8579 61.2763C53.0291 63.0488 58.8058 65.029 59.3092 71.1951Z" fill="white" stroke="#2873C9" stroke-width="3" stroke-linecap="round"/>
<path d="M63.7823 37.8506C74.217 37.0847 79.8712 27.466 64.7142 23.4699C53.7203 21.2574 45.4283 27.1932 50.5527 34.2559L49.1552 38L53.9998 36.4683C57.6553 37.6083 59.8078 37.8713 63.7823 37.8506Z" fill="#FFFEFE" stroke="#2873C9" stroke-width="3" stroke-linecap="round" stroke-linejoin="round"/>
<circle cx="68" cy="68" r="66.5" fill="white" stroke="#2873C9" stroke-width="3"/>
<path d="M76.7236 63C76.7236 67.6944 72.9181 71.5 68.2236 71.5C63.5292 71.5 59.7236 67.6944 59.7236 63C59.7236 58.3056 63.5292 54.5 68.2236 54.5C72.9181 54.5 76.7236 58.3056 76.7236 63Z" fill="white" stroke="#2873C9" stroke-width="3"/>
<path d="M88.5329 84.1951V109.122C88.5329 110.209 87.6651 111.093 86.5786 111.118L50.0458 111.953C48.9236 111.979 48.0001 111.076 48 109.953C47.9999 103.811 48.0001 100.02 48.0001 86.0488C48.0001 79.6383 52.9896 76.5399 59.6962 74.2412C60.158 74.083 60.6636 74.1086 61.1141 74.2967C66.284 76.455 69.292 76.8504 75.566 74.2965C76.0251 74.1096 76.537 74.0896 77.0059 74.2503L77.0816 74.2763C82.2528 76.0488 88.0294 78.029 88.5329 84.1951Z" fill="white" stroke="#2873C9" stroke-width="3" stroke-linecap="round"/>
<g filter="url(#filter0_d_901_166)">
<path d="M103.746 25.4839H83.8823V44.1556L85.76 45.853H103.746V25.4839Z" fill="white"/>
<path d="M103.746 25.4839H83.8823V44.1556L85.76 45.853H103.746V25.4839Z" stroke="#2873C9" stroke-width="2" stroke-linecap="round" stroke-linejoin="round"/>
</g>
<g filter="url(#filter1_d_901_166)">
<path d="M104.932 24.4119H85.0684V43.0836L86.946 44.781H104.932V24.4119Z" fill="white"/>
<path d="M104.932 24.4119H85.0684V43.0836L86.946 44.781H104.932V24.4119Z" stroke="#2873C9" stroke-width="2" stroke-linecap="round" stroke-linejoin="round"/>
</g>
<path d="M102.866 31.8894L107.007 27.6279L108.588 29.236L104.372 33.6583L102.264 34.0603L102.866 31.8894Z" fill="#2873C9"/>
<path d="M102.866 31.8894L107.007 27.6279L108.588 29.236L104.372 33.6583M102.866 31.8894L102.264 34.0603L104.372 33.6583M102.866 31.8894L104.372 33.6583" stroke="#2873C9" stroke-width="2" stroke-linecap="round" stroke-linejoin="round"/>
<line x1="86.8472" y1="31.9524" x2="97.1248" y2="31.9524" stroke="#2873C9"/>
<line x1="86.8472" y1="28.9148" x2="97.1248" y2="28.9148" stroke="#2873C9"/>
<line x1="86.8472" y1="27.1279" x2="97.1248" y2="27.1279" stroke="#2873C9"/>
<line x1="86.8472" y1="37.134" x2="97.1248" y2="37.134" stroke="#2873C9"/>
<path d="M86.8472 43.1729H85.0684L86.8472 44.7809V43.1729Z" fill="#FFFDFD" stroke="#2873C9" stroke-width="2" stroke-linecap="round" stroke-linejoin="round"/>
<path d="M35.2177 47.8506C24.783 47.0847 19.1288 37.466 34.2858 33.4699C45.2797 31.2574 53.5717 37.1932 48.4473 44.2559L49.8448 48L45.0002 46.4683C41.3447 47.6083 39.1922 47.8713 35.2177 47.8506Z" fill="#FFFEFE" stroke="#2873C9" stroke-width="3" stroke-linecap="round" stroke-linejoin="round"/>
<defs>
<filter id="filter0_d_901_166" x="78.8823" y="24.4839" width="29.8638" height="30.3691" filterUnits="userSpaceOnUse" color-interpolation-filters="sRGB">
<feFlood flood-opacity="0" result="BackgroundImageFix"/>
<feColorMatrix in="SourceAlpha" type="matrix" values="0 0 0 0 0 0 0 0 0 0 0 0 0 0 0 0 0 0 127 0" result="hardAlpha"/>
<feOffset dy="4"/>
<feGaussianBlur stdDeviation="2"/>
<feComposite in2="hardAlpha" operator="out"/>
<feColorMatrix type="matrix" values="0 0 0 0 0 0 0 0 0 0 0 0 0 0 0 0 0 0 0.25 0"/>
<feBlend mode="normal" in2="BackgroundImageFix" result="effect1_dropShadow_901_166"/>
<feBlend mode="normal" in="SourceGraphic" in2="effect1_dropShadow_901_166" result="shape"/>
</filter>
<filter id="filter1_d_901_166" x="80.0684" y="23.4119" width="29.8638" height="30.3691" filterUnits="userSpaceOnUse" color-interpolation-filters="sRGB">
<feFlood flood-opacity="0" result="BackgroundImageFix"/>
<feColorMatrix in="SourceAlpha" type="matrix" values="0 0 0 0 0 0 0 0 0 0 0 0 0 0 0 0 0 0 127 0" result="hardAlpha"/>
<feOffset dy="4"/>
<feGaussianBlur stdDeviation="2"/>
<feComposite in2="hardAlpha" operator="out"/>
<feColorMatrix type="matrix" values="0 0 0 0 0 0 0 0 0 0 0 0 0 0 0 0 0 0 0.25 0"/>
<feBlend mode="normal" in2="BackgroundImageFix" result="effect1_dropShadow_901_166"/>
<feBlend mode="normal" in="SourceGraphic" in2="effect1_dropShadow_901_166" result="shape"/>
</filter>
</defs>
</svg>
