<svg width="136" height="136" viewBox="0 0 136 136" fill="none" xmlns="http://www.w3.org/2000/svg">
<path d="M105 76.9513C104.869 76.9513 104.807 77.0609 104.771 76.9513H68.0001C68.0002 72.5204 67.9998 77.1544 68.0002 64.8344C68.0004 59.4121 72.7712 56.8974 79.0732 55C84.5 56.6062 86.5 57.1416 93.2221 55C98.0008 56.513 103.68 58.026 104.152 63.3214C104.779 74.578 104.669 76.6413 104.771 76.9513H105Z" fill="white"/>
<path d="M105 76.9513C104.5 76.9513 105 78.5575 104.152 63.3214C103.68 58.026 98.0008 56.513 93.2221 55C86.5 57.1416 84.5 56.6062 79.0732 55C72.7712 56.8974 68.0004 59.4121 68.0002 64.8344C67.9998 77.1544 68.0002 72.5204 68.0001 76.9513H105Z" stroke="#2873C9" stroke-width="3" stroke-linecap="round"/>
<mask id="path-3-inside-1_903_151" fill="white">
<rect x="9" y="75" width="107" height="21" rx="2"/>
</mask>
<rect x="9" y="75" width="107" height="21" rx="2" fill="white" stroke="#2873C9" stroke-width="6" mask="url(#path-3-inside-1_903_151)"/>
<path d="M47.5 50C47.5 54.6944 43.6944 58.5 39 58.5C34.3056 58.5 30.5 54.6944 30.5 50C30.5 45.3056 34.3056 41.5 39 41.5C43.6944 41.5 47.5 45.3056 47.5 50Z" fill="white" stroke="#2873C9" stroke-width="3"/>
<path d="M93.5 44.5C93.5 48.2864 90.2241 51.5 86 51.5C81.7759 51.5 78.5 48.2864 78.5 44.5C78.5 40.7136 81.7759 37.5 86 37.5C90.2241 37.5 93.5 40.7136 93.5 44.5Z" fill="white" stroke="#2873C9" stroke-width="3"/>
<path d="M59.3092 71.1951V96.1219C59.3092 97.2086 58.4414 98.093 57.3549 98.1179L20.8221 98.9532C19.7 98.9789 18.7764 98.0758 18.7764 96.9533C18.7763 90.8109 18.7765 87.0196 18.7765 73.0488C18.7764 66.6383 23.766 63.5399 30.4726 61.2412C30.9344 61.083 31.44 61.1086 31.8905 61.2967C37.0604 63.455 40.0684 63.8504 46.3423 61.2965C46.8015 61.1096 47.3134 61.0896 47.7823 61.2503L47.8579 61.2763C53.0291 63.0488 58.8058 65.029 59.3092 71.1951Z" fill="white" stroke="#2873C9" stroke-width="3" stroke-linecap="round"/>
<path d="M63.7823 37.8506C74.217 37.0847 79.8712 27.466 64.7142 23.4699C53.7203 21.2574 45.4283 27.1932 50.5527 34.2559L49.1552 38L53.9998 36.4683C57.6553 37.6083 59.8078 37.8713 63.7823 37.8506Z" fill="#FFFEFE" stroke="#2873C9" stroke-width="3" stroke-linecap="round" stroke-linejoin="round"/>
<circle cx="68" cy="68" r="66.5" fill="#C1EAF8" stroke="#2873C9" stroke-width="3"/>
<path d="M76.7236 63C76.7236 67.6944 72.9181 71.5 68.2236 71.5C63.5292 71.5 59.7236 67.6944 59.7236 63C59.7236 58.3056 63.5292 54.5 68.2236 54.5C72.9181 54.5 76.7236 58.3056 76.7236 63Z" fill="white" stroke="#2873C9" stroke-width="3"/>
<path d="M88.5329 84.1951V109.122C88.5329 110.209 87.6651 111.093 86.5786 111.118L50.0458 111.953C48.9236 111.979 48.0001 111.076 48 109.953C47.9999 103.811 48.0001 100.02 48.0001 86.0488C48.0001 79.6383 52.9896 76.5399 59.6962 74.2412C60.158 74.083 60.6636 74.1086 61.1141 74.2967C66.284 76.455 69.292 76.8504 75.566 74.2965C76.0251 74.1096 76.537 74.0896 77.0059 74.2503L77.0816 74.2763C82.2528 76.0488 88.0294 78.029 88.5329 84.1951Z" fill="white" stroke="#2873C9" stroke-width="3" stroke-linecap="round"/>
<circle cx="99" cy="36" r="10" fill="white" stroke="#2873C9" stroke-width="2"/>
<path d="M99.0361 28.9995L99.0673 34.0147" stroke="#2873C9" stroke-linecap="round"/>
<path d="M97.6533 37.4717L95.3464 39.7399" stroke="#2873C9" stroke-linecap="round"/>
<circle cx="99" cy="36" r="1" fill="#2873C9"/>
<mask id="path-15-inside-2_903_151" fill="white">
<rect x="32" y="29" width="20" height="16" rx="1"/>
</mask>
<rect x="32" y="29" width="20" height="16" rx="1" fill="white" stroke="#2873C9" stroke-width="4" mask="url(#path-15-inside-2_903_151)"/>
<g filter="url(#filter0_d_903_151)">
<path d="M30.1694 30.1767C30.0929 29.5599 30.5695 29 31.191 29H49.168C49.6502 29 50.0618 29.3422 50.1298 29.8195C50.3601 31.437 50.7492 35.0921 50 37.5C49.0854 40.4393 45.7704 43.7836 44.7808 44.7351C44.6011 44.9079 44.3618 45 44.1125 45H27.3679C26.4837 45 26.0033 43.9083 26.5641 43.2245C27.8035 41.7133 29.42 39.479 30 37.5C30.6607 35.2458 30.3863 31.9254 30.1694 30.1767Z" fill="white"/>
<path d="M31.191 30H49.1454C49.2567 30.7894 49.4018 32.0454 49.4325 33.3862C49.4641 34.7678 49.3713 36.1546 49.0452 37.2029C48.6457 38.4868 47.6868 39.9377 46.6402 41.2351C45.6203 42.4995 44.5875 43.533 44.1025 44H27.3679C27.3666 44 27.3655 44 27.3646 43.9999C27.3598 43.996 27.3475 43.984 27.3367 43.9599C27.3247 43.9331 27.322 43.9076 27.3237 43.8907C27.3249 43.8784 27.328 43.87 27.3373 43.8587C28.5799 42.3436 30.3173 39.9727 30.9596 37.7813C31.331 36.5143 31.4272 35.0057 31.4138 33.6389C31.4001 32.2577 31.273 30.95 31.1618 30.0536C31.16 30.0392 31.1638 30.024 31.1756 30.0103C31.1811 30.0039 31.1858 30.0012 31.1873 30.0005C31.1876 30.0003 31.1877 30 31.191 30Z" stroke="#2873C9" stroke-width="2"/>
</g>
<path d="M37.456 34.184C36.9973 34.184 36.6827 34.4453 36.512 34.968C36.4107 35.2773 36.36 35.7493 36.36 36.384C36.36 37.024 36.4107 37.496 36.512 37.8C36.6773 38.328 36.992 38.592 37.456 38.592C37.9147 38.592 38.2293 38.328 38.4 37.8C38.5013 37.4907 38.552 37.0187 38.552 36.384C38.552 35.7493 38.5013 35.2773 38.4 34.968C38.2293 34.4453 37.9147 34.184 37.456 34.184ZM37.456 33.36C38.1813 33.36 38.7093 33.7013 39.04 34.384C39.2907 34.9013 39.416 35.568 39.416 36.384C39.416 38.4 38.7627 39.408 37.456 39.408C36.1493 39.408 35.496 38.4 35.496 36.384C35.496 35.5573 35.6187 34.8907 35.864 34.384C36.1947 33.7013 36.7253 33.36 37.456 33.36ZM40.5956 38.432C40.9316 38.5707 41.2836 38.64 41.6516 38.64C42.6329 38.64 43.1902 38.0453 43.3236 36.856C43.0356 37.16 42.6649 37.312 42.2116 37.312C41.7209 37.312 41.3102 37.1733 40.9796 36.896C40.5582 36.5547 40.3476 36.0373 40.3476 35.344C40.3476 34.7413 40.5182 34.2613 40.8596 33.904C41.2169 33.5307 41.6969 33.344 42.2996 33.344C43.5742 33.344 44.2116 34.288 44.2116 36.176C44.2116 37.1413 44.0222 37.9013 43.6436 38.456C43.2009 39.1067 42.5129 39.432 41.5796 39.432C41.2702 39.432 40.9209 39.3867 40.5316 39.296L40.5956 38.432ZM42.2836 34.152C41.9422 34.152 41.6729 34.2613 41.4756 34.48C41.2836 34.6987 41.1876 34.984 41.1876 35.336C41.1876 36.12 41.5289 36.512 42.2116 36.512C42.5529 36.512 42.8249 36.408 43.0276 36.2C43.2196 36.0027 43.3156 35.736 43.3156 35.4C43.3156 35.048 43.2276 34.7547 43.0516 34.52C42.8702 34.2747 42.6142 34.152 42.2836 34.152Z" fill="#2873C9"/>
<path d="M34 30L34 28" stroke="#2873C9" stroke-width="2" stroke-linecap="round"/>
<path d="M41 30L41 28" stroke="#2873C9" stroke-width="2" stroke-linecap="round"/>
<path d="M48 30L48 28" stroke="#2873C9" stroke-width="2" stroke-linecap="round"/>
<defs>
<filter id="filter0_d_903_151" x="24.3232" y="29" width="28.1152" height="20" filterUnits="userSpaceOnUse" color-interpolation-filters="sRGB">
<feFlood flood-opacity="0" result="BackgroundImageFix"/>
<feColorMatrix in="SourceAlpha" type="matrix" values="0 0 0 0 0 0 0 0 0 0 0 0 0 0 0 0 0 0 127 0" result="hardAlpha"/>
<feOffset dy="2"/>
<feGaussianBlur stdDeviation="1"/>
<feComposite in2="hardAlpha" operator="out"/>
<feColorMatrix type="matrix" values="0 0 0 0 0 0 0 0 0 0 0 0 0 0 0 0 0 0 0.25 0"/>
<feBlend mode="normal" in2="BackgroundImageFix" result="effect1_dropShadow_903_151"/>
<feBlend mode="normal" in="SourceGraphic" in2="effect1_dropShadow_903_151" result="shape"/>
</filter>
</defs>
</svg>
